<svg width="30" height="31" viewBox="0 0 30 31" fill="none" xmlns="http://www.w3.org/2000/svg">
  <g clip-path="url(#clip0_647_826)">
    <path d="M5.625 4.3501C5.625 3.35554 6.02009 2.40171 6.72335 1.69845C7.42661 0.995186 8.38044 0.600098 9.375 0.600098L20.625 0.600098C21.6196 0.600098 22.5734 0.995186 23.2766 1.69845C23.9799 2.40171 24.375 3.35554 24.375 4.3501V26.8501C24.375 27.8447 23.9799 28.7985 23.2766 29.5017C22.5734 30.205 21.6196 30.6001 20.625 30.6001H9.375C8.38044 30.6001 7.42661 30.205 6.72335 29.5017C6.02009 28.7985 5.625 27.8447 5.625 26.8501V4.3501ZM16.875 24.9751C16.875 24.4778 16.6775 24.0009 16.3258 23.6493C15.9742 23.2976 15.4973 23.1001 15 23.1001C14.5027 23.1001 14.0258 23.2976 13.6742 23.6493C13.3225 24.0009 13.125 24.4778 13.125 24.9751C13.125 25.4724 13.3225 25.9493 13.6742 26.3009C14.0258 26.6526 14.5027 26.8501 15 26.8501C15.4973 26.8501 15.9742 26.6526 16.3258 26.3009C16.6775 25.9493 16.875 25.4724 16.875 24.9751Z" fill="#ffffff" />
  </g>
  <defs>
    <clipPath id="clip0_647_826">
      <rect width="30" height="30" fill="white" transform="translate(0 0.600098)" />
    </clipPath>
  </defs>
</svg>