<svg width="31" height="21" viewBox="0 0 31 21" fill="none" xmlns="http://www.w3.org/2000/svg">
  <g clip-path="url(#clip0_737_516)">
    <path d="M3.63454 0H27.0169C29.2228 0 30.3345 1.0325 30.3345 3.1325V17.8675C30.3345 19.95 29.2228 21 27.0169 21H3.63454C1.42866 21 0.316895 19.95 0.316895 17.8675V3.1325C0.316895 1.0325 1.42866 0 3.63454 0ZM15.3169 15.05L27.211 5.3725C27.6345 5.0225 27.9698 4.2175 27.4404 3.5C26.9287 2.7825 25.9934 2.765 25.3757 3.2025L15.3169 9.9575L5.27572 3.2025C4.65807 2.765 3.72278 2.7825 3.21101 3.5C2.6816 4.2175 3.01689 5.0225 3.44042 5.3725L15.3169 15.05Z" fill="#3E2B00" />
  </g>
  <defs>
    <clipPath id="clip0_737_516">
      <rect width="30" height="21" fill="#3E2B00" transform="translate(0.333496)" />
    </clipPath>
  </defs>
</svg>