<svg width="30" height="30" viewBox="0 0 30 30" fill="none" xmlns="http://www.w3.org/2000/svg">
  <path d="M23.052 0.000115292H6.9141C5.99955 -0.000714351 5.09389 0.179682 4.24946 0.530882C3.40502 0.882083 2.63853 1.39713 1.99428 2.04626C1.35254 2.69332 0.845801 3.46148 0.503527 4.3061C0.161252 5.15072 -0.00973311 6.05496 0.000508736 6.96624V23.0339C-0.0105897 23.9453 0.160003 24.8498 0.502326 25.6945C0.844649 26.5392 1.35184 27.3073 1.99428 27.9539C2.63835 28.6028 3.40459 29.1177 4.24875 29.4689C5.09291 29.8201 5.99827 30.0006 6.91256 30H14.24V19.2831H11.4401C11.2668 19.2819 11.1008 19.2127 10.978 19.0905C10.8552 18.9682 10.7852 18.8026 10.7832 18.6293V15.1893C10.783 15.1009 10.8003 15.0133 10.8341 14.9316C10.868 14.85 10.9176 14.7758 10.9803 14.7134C11.0429 14.6511 11.1173 14.6017 11.1991 14.5683C11.281 14.5348 11.3686 14.5179 11.457 14.5185H14.24V11.1647C14.1619 10.372 14.2587 9.57192 14.5234 8.82073C14.7882 8.06954 15.2145 7.38556 15.7722 6.81701C16.3306 6.24588 17.0067 5.80341 17.7536 5.52043C18.5005 5.23745 19.3001 5.12078 20.0967 5.17856H22.9489C23.0362 5.17916 23.1224 5.19702 23.2028 5.23111C23.2831 5.2652 23.3559 5.31485 23.417 5.3772C23.478 5.43955 23.5261 5.51337 23.5586 5.59439C23.591 5.67542 23.607 5.76206 23.6058 5.84932V8.757C23.6058 8.84306 23.5888 8.92826 23.5557 9.0077C23.5226 9.08715 23.4742 9.15926 23.4131 9.21989C23.3521 9.28053 23.2796 9.32848 23.1999 9.36099C23.1203 9.3935 23.0349 9.40992 22.9489 9.40931H21.2213C19.3198 9.40931 18.9567 10.3047 18.9567 11.6108V14.5016H23.1043C23.1978 14.5011 23.2903 14.5206 23.3757 14.5586C23.4611 14.5967 23.5374 14.6525 23.5996 14.7224C23.6617 14.7923 23.7083 14.8746 23.7361 14.9638C23.764 15.0531 23.7725 15.1472 23.7612 15.2401L23.3458 18.6816C23.3289 18.8434 23.2522 18.9931 23.1307 19.1012C23.0091 19.2094 22.8516 19.2682 22.6889 19.2662H18.9737V29.9831H23.0874C24.0017 29.9837 24.907 29.8032 25.7512 29.452C26.5953 29.1008 27.3616 28.5859 28.0056 27.9369C28.6476 27.2897 29.1544 26.5213 29.4967 25.6764C29.839 24.8315 30.0099 23.927 29.9994 23.0154V6.96624C30.0114 6.05179 29.8401 5.14421 29.4955 4.29707C29.151 3.44993 28.6402 2.68042 27.9933 2.03395C27.3455 1.38446 26.5751 0.870195 25.7268 0.521045C24.8785 0.171894 23.9693 -0.00517871 23.052 0.000115292Z" fill="#3E2B00" />
</svg>