<svg width="31" height="30" viewBox="0 0 31 30" fill="none" xmlns="http://www.w3.org/2000/svg">
  <g clip-path="url(#clip0_647_830)">
    <path d="M22.0002 0C24.2103 0 26.3299 0.877974 27.8927 2.44078C29.4555 4.00358 30.3335 6.1232 30.3335 8.33333V21.6667C30.3335 23.8768 29.4555 25.9964 27.8927 27.5592C26.3299 29.122 24.2103 30 22.0002 30H8.66683C6.45669 30 4.33708 29.122 2.77427 27.5592C1.21147 25.9964 0.333496 23.8768 0.333496 21.6667V8.33333C0.333496 6.1232 1.21147 4.00358 2.77427 2.44078C4.33708 0.877974 6.45669 0 8.66683 0H22.0002ZM15.3335 8.33333C13.5654 8.33333 11.8697 9.03571 10.6195 10.286C9.36921 11.5362 8.66683 13.2319 8.66683 15C8.66683 16.7681 9.36921 18.4638 10.6195 19.714C11.8697 20.9643 13.5654 21.6667 15.3335 21.6667C17.1016 21.6667 18.7973 20.9643 20.0475 19.714C21.2978 18.4638 22.0002 16.7681 22.0002 15C22.0002 13.2319 21.2978 11.5362 20.0475 10.286C18.7973 9.03571 17.1016 8.33333 15.3335 8.33333ZM15.3335 11.6667C16.2176 11.6667 17.0654 12.0179 17.6905 12.643C18.3156 13.2681 18.6668 14.1159 18.6668 15C18.6668 15.8841 18.3156 16.7319 17.6905 17.357C17.0654 17.9821 16.2176 18.3333 15.3335 18.3333C14.4494 18.3333 13.6016 17.9821 12.9765 17.357C12.3514 16.7319 12.0002 15.8841 12.0002 15C12.0002 14.1159 12.3514 13.2681 12.9765 12.643C13.6016 12.0179 14.4494 11.6667 15.3335 11.6667ZM22.8335 5.83333C22.3915 5.83333 21.9675 6.00893 21.655 6.32149C21.3424 6.63405 21.1668 7.05797 21.1668 7.5C21.1668 7.94203 21.3424 8.36595 21.655 8.67851C21.9675 8.99107 22.3915 9.16667 22.8335 9.16667C23.2755 9.16667 23.6994 8.99107 24.012 8.67851C24.3246 8.36595 24.5002 7.94203 24.5002 7.5C24.5002 7.05797 24.3246 6.63405 24.012 6.32149C23.6994 6.00893 23.2755 5.83333 22.8335 5.83333Z" fill="#3E2B00" />
  </g>
  <defs>
    <clipPath id="clip0_647_830">
      <rect width="30" height="30" fill="#3E2B00" transform="translate(0.333496)" />
    </clipPath>
  </defs>
</svg>