<svg width="19" height="19" viewBox="0 0 19 19" fill="none" xmlns="http://www.w3.org/2000/svg">
<path fill-rule="evenodd" clip-rule="evenodd" d="M2.19699 2.10234C1.50046 2.79887 0.947939 3.62577 0.570979 4.53584C0.194019 5.4459 1.03791e-08 6.4213 0 7.40634C-1.03791e-08 8.39138 0.194019 9.36678 0.570979 10.2768C0.947939 11.1869 1.50046 12.0138 2.19699 12.7103C2.89352 13.4069 3.72042 13.9594 4.63048 14.3363C5.54055 14.7133 6.51595 14.9073 7.50099 14.9073C8.48603 14.9073 9.46143 14.7133 10.3715 14.3363C11.2816 13.9594 12.1085 13.4069 12.805 12.7103C14.1712 11.2958 14.9271 9.40131 14.91 7.43483C14.893 5.46835 14.1042 3.58726 12.7136 2.1967C11.3231 0.806139 9.44197 0.0173717 7.4755 0.00028352C5.50902 -0.0168046 3.6145 0.739153 2.19999 2.10534M11.746 11.6513C11.1911 12.2187 10.5292 12.6703 9.79856 12.9801C9.06794 13.2898 8.28312 13.4516 7.48955 13.456C6.69598 13.4603 5.90943 13.3072 5.17543 13.0055C4.44144 12.7038 3.77459 12.2595 3.21349 11.6983C2.65239 11.1371 2.2082 10.4702 1.90663 9.73616C1.60505 9.00211 1.45209 8.21553 1.4566 7.42196C1.46111 6.62839 1.623 5.8436 1.9329 5.11303C2.2428 4.38246 2.69455 3.72062 3.26199 3.16584C4.39151 2.06151 5.91097 1.44718 7.49061 1.45616C9.07025 1.46514 10.5826 2.0967 11.6995 3.2138C12.8164 4.33089 13.4477 5.84338 13.4564 7.42302C13.4651 9.00266 12.8505 10.522 11.746 11.6513Z" fill="black"/>
<path d="M11.743 13.8008C11.4617 13.5194 11.3038 13.1377 11.3039 12.7398C11.3041 12.3419 11.4623 11.9604 11.7437 11.6791C12.0252 11.3978 12.4069 11.2399 12.8048 11.24C13.2027 11.2402 13.5842 11.3984 13.8655 11.6798L18.1075 15.9233C18.2508 16.0617 18.365 16.2272 18.4436 16.4102C18.5223 16.5932 18.5636 16.7901 18.5654 16.9892C18.5671 17.1884 18.5291 17.3859 18.4537 17.5703C18.3783 17.7546 18.2669 17.9221 18.1261 18.0629C17.9852 18.2038 17.8178 18.3152 17.6334 18.3906C17.4491 18.466 17.2516 18.5039 17.0524 18.5022C16.8532 18.5005 16.6564 18.4591 16.4734 18.3805C16.2904 18.3019 16.1249 18.1876 15.9865 18.0443L11.743 13.8008Z" fill="black"/>
</svg>
