<svg width="30" height="32" viewBox="0 0 30 32" fill="none" xmlns="http://www.w3.org/2000/svg">
  <path fill-rule="evenodd" clip-rule="evenodd" d="M22.6244 0.82446C17.6029 -0.27482 12.3955 -0.27482 7.37398 0.82446L6.83291 0.941691C5.42003 1.25014 4.12229 1.93655 3.08416 2.92452C2.04603 3.91249 1.30826 5.16323 0.952986 6.53751C-0.317662 11.4498 -0.317662 16.5948 0.952986 21.5071C1.29184 22.8177 1.9789 24.0172 2.94436 24.9835C3.90982 25.9499 5.11928 26.6488 6.44985 27.0091L7.19202 31.3482C7.21572 31.486 7.27669 31.6151 7.3686 31.7219C7.46052 31.8288 7.58 31.9096 7.71462 31.9559C7.84923 32.0022 7.99406 32.0123 8.13402 31.9851C8.27397 31.958 8.40394 31.8946 8.51038 31.8015L12.8692 27.9829C16.1413 28.1764 19.4249 27.9201 22.6244 27.2217L23.1671 27.1045C24.58 26.796 25.8777 26.1096 26.9158 25.1217C27.954 24.1337 28.6917 22.8829 29.047 21.5087C30.3177 16.5964 30.3177 11.4514 29.047 6.53907C28.6916 5.1646 27.9536 3.91371 26.9152 2.92573C25.8767 1.93774 24.5787 1.25144 23.1655 0.943254L22.6244 0.82446ZM8.72106 6.4109C8.42442 6.36836 8.12186 6.42685 7.86397 6.57659H7.84162C7.2431 6.92046 6.70363 7.35344 6.24396 7.863C5.8609 8.29597 5.65341 8.73363 5.59915 9.15566C5.56722 9.40576 5.58957 9.65897 5.66459 9.89813L5.69331 9.91376C6.12425 11.1533 6.68607 12.3459 7.37238 13.4682C8.25771 15.0443 9.34668 16.5021 10.6124 17.8057L10.6507 17.8589L10.7114 17.9026L10.7481 17.9448L10.7928 17.9824C12.1286 19.2255 13.6207 20.297 15.233 21.171C17.0765 22.1542 18.1953 22.6185 18.8673 22.8123V22.8217C19.0636 22.881 19.2424 22.9076 19.4227 22.9076C19.9953 22.8674 20.5373 22.6394 20.9613 22.2605C21.48 21.8103 21.919 21.2805 22.2605 20.6912V20.6802C22.5813 20.0863 22.4728 19.5267 22.0099 19.1469C21.081 18.3503 20.0756 17.6437 19.0077 17.0367C18.2927 16.6569 17.5665 16.8866 17.2728 17.2712L16.6455 18.0464C16.3231 18.431 15.739 18.3778 15.739 18.3778L15.723 18.3872C11.3642 17.2977 10.2006 12.9758 10.2006 12.9758C10.2006 12.9758 10.1463 12.3881 10.5502 12.088L11.3354 11.469C11.7121 11.1689 11.9739 10.4593 11.57 9.75901C10.9517 8.71398 10.2317 7.72988 9.42014 6.82043C9.24261 6.60687 8.99399 6.46134 8.71787 6.40934M16.0853 4.53208C15.8737 4.53208 15.6707 4.61442 15.521 4.76099C15.3714 4.90755 15.2873 5.10634 15.2873 5.31362C15.2873 5.5209 15.3714 5.71968 15.521 5.86625C15.6707 6.01282 15.8737 6.09516 16.0853 6.09516C18.1044 6.09516 19.7802 6.74071 21.1066 7.97867C21.7881 8.65548 22.3196 9.45734 22.6675 10.3358C23.0171 11.2158 23.1767 12.1552 23.1352 13.0962C23.1308 13.1988 23.1471 13.3013 23.1831 13.3978C23.2191 13.4942 23.2742 13.5828 23.3452 13.6584C23.4886 13.8112 23.688 13.9018 23.8997 13.9105C24.1113 13.9193 24.3179 13.8453 24.4738 13.7048C24.6297 13.5644 24.7223 13.3691 24.7312 13.1618C24.7789 12.0045 24.5827 10.8499 24.1551 9.76995C23.7254 8.68453 23.0711 7.69788 22.2334 6.87201L22.2174 6.85638C20.5719 5.31675 18.489 4.53208 16.0853 4.53208ZM16.0311 7.10178C15.8194 7.10178 15.6164 7.18412 15.4668 7.33069C15.3171 7.47725 15.233 7.67604 15.233 7.88332C15.233 8.0906 15.3171 8.28938 15.4668 8.43595C15.6164 8.58252 15.8194 8.66486 16.0311 8.66486H16.0582C17.5138 8.76646 18.5736 9.24163 19.3158 10.0216C20.0771 10.825 20.4713 11.8238 20.441 13.0587C20.4361 13.2659 20.5155 13.4666 20.6618 13.6166C20.808 13.7665 21.009 13.8534 21.2207 13.8582C21.4323 13.863 21.6373 13.7852 21.7904 13.642C21.9435 13.4988 22.0322 13.3019 22.0371 13.0946C22.0754 11.4737 21.5423 10.0748 20.4857 8.95872V8.95559C19.4052 7.8208 17.9224 7.22057 16.138 7.10334L16.1109 7.10022L16.0311 7.10178ZM16.0007 9.71994C15.8939 9.71071 15.7863 9.72265 15.6844 9.75504C15.5824 9.78744 15.4881 9.83963 15.4072 9.9085C15.3262 9.97737 15.2603 10.0615 15.2133 10.1559C15.1663 10.2502 15.1392 10.3529 15.1336 10.4578C15.1281 10.5626 15.1441 10.6675 15.1808 10.7662C15.2176 10.8648 15.2742 10.9552 15.3474 11.0319C15.4206 11.1087 15.5088 11.1702 15.6068 11.2128C15.7048 11.2554 15.8105 11.2782 15.9177 11.2799C16.5849 11.3143 17.011 11.5112 17.2792 11.7754C17.5489 12.0411 17.75 12.4678 17.7867 13.1353C17.7887 13.2401 17.8123 13.3436 17.8559 13.4393C17.8996 13.5351 17.9625 13.6213 18.0409 13.6928C18.1193 13.7643 18.2116 13.8195 18.3123 13.8553C18.413 13.8911 18.52 13.9067 18.627 13.9012C18.7339 13.8956 18.8386 13.869 18.9349 13.823C19.0311 13.7769 19.1169 13.7124 19.1872 13.6332C19.2574 13.554 19.3106 13.4617 19.3437 13.362C19.3768 13.2622 19.389 13.1569 19.3796 13.0524C19.3285 12.1146 19.0285 11.2861 18.414 10.6765C17.7963 10.0669 16.9552 9.76995 16.0007 9.71994Z" fill="#3E2B00" />
</svg>