<svg width="16" height="16" viewBox="0 0 16 16" fill="none" xmlns="http://www.w3.org/2000/svg">
<path d="M4.4448 5.09124C4.37355 5.85124 4.32355 7.19624 4.7723 7.76874C4.7723 7.76874 4.56105 6.29124 6.4548 4.43749C7.2173 3.69124 7.39355 2.67624 7.1273 1.91499C6.97605 1.48374 6.6998 1.12749 6.4598 0.878737C6.3198 0.732487 6.4273 0.491237 6.63105 0.499987C7.86355 0.554987 9.86105 0.897487 10.7098 3.02749C11.0823 3.96249 11.1098 4.92874 10.9323 5.91124C10.8198 6.53874 10.4198 7.93374 11.3323 8.10499C11.9836 8.22749 12.2986 7.70999 12.4398 7.33749C12.4986 7.18249 12.7023 7.14374 12.8123 7.26749C13.9123 8.51874 14.0061 9.99249 13.7786 11.2612C13.3386 13.7137 10.8548 15.4987 8.3873 15.4987C5.3048 15.4987 2.85105 13.735 2.2148 10.5425C1.95855 9.25374 2.08855 6.70374 4.07605 4.90374C4.22355 4.76874 4.4648 4.88874 4.4448 5.09124Z" fill="url(#paint0_radial_1866_17)"/>
<path d="M9.51384 9.67751C8.37759 8.21501 8.88634 6.54626 9.16509 5.88126C9.20259 5.79376 9.10259 5.71126 9.02384 5.76501C8.53509 6.09751 7.53384 6.88001 7.06759 7.98126C6.43634 9.47001 6.48134 10.1988 6.85509 11.0888C7.08009 11.625 6.81884 11.7388 6.68759 11.7588C6.56009 11.7788 6.44259 11.6938 6.34884 11.605C6.07919 11.346 5.887 11.0171 5.79384 10.655C5.77384 10.5775 5.67259 10.5563 5.62634 10.62C5.27634 11.1038 5.09509 11.88 5.08634 12.4288C5.05884 14.125 6.46009 15.5 8.15509 15.5C10.2913 15.5 11.8476 13.1375 10.6201 11.1625C10.2638 10.5875 9.92884 10.2113 9.51384 9.67751Z" fill="url(#paint1_radial_1866_17)"/>
<defs>
<radialGradient id="paint0_radial_1866_17" cx="0" cy="0" r="1" gradientTransform="matrix(-8.82338 -0.0382934 -0.0629107 14.4774 7.77677 15.5376)" gradientUnits="userSpaceOnUse">
<stop offset="0.314" stop-color="#FF9800"/>
<stop offset="0.662" stop-color="#FF6D00"/>
<stop offset="0.972" stop-color="#F44336"/>
</radialGradient>
<radialGradient id="paint1_radial_1866_17" cx="0" cy="0" r="1" gradientTransform="matrix(-0.0932482 9.23158 6.94746 0.070167 8.27258 6.75731)" gradientUnits="userSpaceOnUse">
<stop offset="0.214" stop-color="#FFF176"/>
<stop offset="0.328" stop-color="#FFF27D"/>
<stop offset="0.487" stop-color="#FFF48F"/>
<stop offset="0.672" stop-color="#FFF7AD"/>
<stop offset="0.793" stop-color="#FFF9C4"/>
<stop offset="0.822" stop-color="#FFF8BD" stop-opacity="0.804"/>
<stop offset="0.863" stop-color="#FFF6AB" stop-opacity="0.529"/>
<stop offset="0.91" stop-color="#FFF38D" stop-opacity="0.209"/>
<stop offset="0.941" stop-color="#FFF176" stop-opacity="0"/>
</radialGradient>
</defs>
</svg>
