<svg xmlns="http://www.w3.org/2000/svg" width="612.121" height="429.981" xmlns:v="https://vecta.io/nano"><path d="M295.732 0l-16.34.961 1.439 25.779.16.65L289 26.9c3.36-.16 5.771-.96 7.211-2.4 1.44-1.6 2.08-3.52 2.08-6.08-.16-1.44-.479-2.73-1.119-4.01-.64-1.12-1.759-1.921-3.359-2.561-1.611-.64-3.532-.801-6.252-.641l-3.076.133-.268-6.566 11.676-.615zm20.18.961l-3.68 26.26 4.48.648 1.35-9.689 2.18.24c2.56.32 4.799.322 6.41-.318 1.76-.64 3.039-1.441 3.84-2.732.8-1.12 1.442-2.56 1.602-4 .32-2.56-.162-4.64-1.602-6.24-1.44-1.609-3.84-2.729-7.211-3.209zm-21.422.512l.086 1.443-11.824.605.48 9.289 4.488-.32c2.4-.159 4.162-.001 5.611.639 1.28.48 2.081 1.12 2.721 2.08.48.971.799 1.931.799 3.211.16 2.24-.32 3.841-1.6 5.121-1.12 1.28-3.209 1.92-6.41 2.08l-6.609.432-1.365-23.85zm22.596 1.029l5.875.859h.002c3.21.32 5.288 1.279 6.568 2.568 1.121 1.44 1.601 3.199 1.281 5.279-.16 1.28-.639 2.401-1.439 3.361-.641 1.122-1.762 1.77-3.201 2.25-1.451.48-3.37.64-5.77.32l-3.529-.48-1.357 9.652-1.746-.262zm1.557 1.658l-1.451 11.049 3.051.482c2.56.33 4.479.159 5.93-.482 1.439-.64 2.4-2.08 2.721-4.16.16-1.76-.163-3.198-1.281-4.318s-2.729-1.761-5.129-2.09zm1.193 1.396l2.486.373c2.08.32 3.531.801 4.332 1.762.8.639 1.118 1.759.799 3.199-.16 1.6-.799 2.719-1.93 3.199-1.12.48-2.721.64-4.961.32l-1.996-.25zm-67.84.395c-1.162.02-2.404.22-3.684.619-2.56.641-4.652 1.761-6.092 3.361s-2.401 3.52-2.721 5.76c-.32 2.249-.159 4.649.641 7.209.64 2.56 1.762 4.652 3.041 6.412 1.451 1.759 3.211 3.04 5.291 3.68 2.08.48 4.489.48 7.049-.16 2.56-.8 4.639-1.921 6.09-3.52 1.44-1.6 2.401-3.531 2.721-5.771.32-2.08.159-4.481-.641-7.201-.64-2.569-1.76-4.648-3.211-6.408-1.44-1.76-3.199-2.88-5.279-3.521-.96-.32-2.043-.479-3.205-.459zm0 1.34c1.042-.04 2.005.08 2.885.4 1.76.48 3.361 1.6 4.641 3.039 1.291 1.602 2.251 3.519 2.891 5.93.8 2.56.961 4.639.641 6.719-.32 1.92-1.121 3.68-2.412 5.131-1.44 1.28-3.198 2.4-5.439 3.041-2.4.64-4.49.64-6.41.16-1.76-.641-3.359-1.601-4.49-3.201-1.28-1.611-2.239-3.53-3.039-6.09-.64-2.24-.8-4.479-.48-6.568.32-1.92 1.12-3.521 2.4-4.961s3.051-2.399 5.451-3.039c1.2-.32 2.321-.521 3.363-.561zm99.326.719l-8.492 24.98 13.932 4.801.48.158 1.451-3.84-10.385-3.455 2.514-7.381 9.631 3.307 1.441-3.84-9.689-3.275 2.074-6.094 10.332 3.451 1.281-3.852zm-99.119.744c-.975-.043-2.01.077-3.09.377-3.04.8-4.971 2.401-5.771 4.641-.96 2.249-.96 4.97 0 8.17.8 3.2 2.252 5.611 4.172 7.051 1.92 1.6 4.32 1.92 7.369 1.121 2.88-.8 4.8-2.401 5.6-4.652.971-2.24.971-4.96 0-8.16-.8-3.21-2.24-5.61-4-7.051-1.2-.899-2.655-1.424-4.279-1.496zm99.852.891l12.166 4.102-.533 1.42-10.285-3.475-2.881 8.648 9.701 3.33-.482 1.281-9.699-3.332-3.371 9.771 10.354 3.498-.506 1.432-12.055-4.062zm-99.949.443c1.364.036 2.516.423 3.416 1.123 1.76 1.44 2.881 3.517 3.68 6.408.8 2.88.8 5.281.16 7.361-.8 1.92-2.4 3.21-4.959 3.85-2.411.64-4.49.481-6.09-.799-1.76-1.291-2.88-3.531-3.68-6.41v-.002c-.81-2.879-.812-5.279-.172-7.369.811-1.759 2.413-3.039 4.973-3.84.96-.24 1.854-.344 2.672-.322zm37.068 3.809a18.75 18.75 0 0 0-1.773.033l-4.008.16.479 10.41h.641l4.01-.16c2.402-.16 4-.8 4.971-1.6 1.12-.96 1.599-2.4 1.439-4.16 0-1.76-.799-3.21-2.09-3.85-.84-.48-2.04-.781-3.668-.834zm-1.773 1.313c2.4 0 4.001.161 4.801.641.971.491 1.291 1.451 1.451 2.891 0 1.28-.32 2.241-.971 3.041-.799.64-2.24 1.119-4.32 1.119l-3.238.27-.418-7.832zm-69.369 2.73l-11.371 6.08.32.48 1.92 5.449 1.6 5.76.801 5.932.189 5.039-1.949 1.041 5.131 9.447 3.84-1.92-3.156-5.889 14.197-7.611 3.059 5.973 3.85-2.08-5.129-9.449-2.744 1.432-10.236-19.203zm-.492 1.703L227.961 39.4l2.91-1.459 3.836 7.131-1.594.799-3.061-5.83-16.5 8.799 3.154 5.744-1.553.875-3.875-7.184 1.633-.875v-.32l-.16-5.6-.971-5.932-1.6-6.078c-.431-1.724-1.121-3.455-1.836-4.949zm-.947 2.299l-.48.318-5.611 2.881.16.641c.64 1.12 1.12 2.569 1.611 4.328l1.281 5.121.799 5.451.16 4.799v1.121l11.85-6.4zm-.49 1.707l8.49 16.092-8.734 4.563c.01-1.13-.109-2.369-.227-3.781l-.801-5.451-1.279-5.441-1.373-3.832zm186.48 8.381l-1.254 15.217-15.246 5.605 3.84 2.879 11.432-4.299-1.332 12.148 3.041 2.4.959.639 1.568-16.33 14.133-4.971-3.84-3.039-10.324 3.773 1.023-10.822zm1.031 2.588l1.641 1.254-1.232 12.17 11.568-4.215 1.416 1.084-12.664 4.41-1.334 14.838-1.656-1.365 1.391-13.311-12.557 4.807-1.439-1.08 13.836-5.008zm-92.686 16.576c-5.604-.187-11.43.833-17.437 2.938-11.06 4-19.708 10.729-23.068 22.74-.48 1.76-1.439.961-2.41.641-5.439-1.44-11.049-1.92-16.82-1.92-14.089.32-25.79 8-30.43 20.66-.971 2.88-2.411 3.68-5.131 3.84-8.009.48-14.74 3.84-18.9 10.729-1.769 2.72-3.689 4.32-6.729 5.441-11.86 4.489-20.352 17.618-20.512 31.389-.16 10.569 3.211 19.38 12.82 24.82 9.771 5.609 30.12 3.848 38.131-4.801v.002c1.28 4.8 1.44 9.29 1.6 13.93.16 6.251-.16 12.489.48 18.738.8 6.72 3.999 11.532 10.57 14.092s13.138 4.64 20.189 5.609c21.14 3.04 42.291 2.56 63.27-.809 15.061-2.4 29.321-6.721 42.301-14.732 1.761-.96 3.68-1.599 4.801-3.359 1.439-2.24-.642-3.68-.961-5.609-1.761-8.64-1.92-17.29.32-25.779 2.08-8.011 6.25-14.091 15.379-15.531 4.651-.8 8.652-3.369 11.852-6.729 9.46-9.771 12.339-21.461 9.779-34.592-2.09-10.569-8.009-17.94-18.908-20.66-1.281-.479-1.601-1.28-1.92-2.4-1.12-4.8-3.52-8.808-7.051-12.168-9.131-8.491-20.341-12.332-32.521-13.932-.96-.16-1.919-.159-2.719-.959-7.913-7.606-16.635-11.276-25.975-11.588zm-4.197 3.881c8.535-.455 16.733 2.121 24.238 8.826 2.722 2.4 5.451 5.12 7.531 8.48.8 1.451 1.92 2.892 3.691 1.932 1.92-1.12.638-2.732.158-4.012-.158-.48-.319-.959-.648-1.439 2.251-.32 4.169.479 6.25 1.119 8.009 2.08 15.38 5.451 21.311 11.531a20.82 20.82 0 0 1 4.479 6.568c.969 2.08.809 3.041-1.92 2.881-4-.16-7.851.641-11.691 1.92-1.28.48-2.728.799-2.408 2.73.32 1.6 1.609 2.24 3.209 2.24 4.641 0 9.29 0 13.939.32 12.971 1.12 19.542 8.488 20.021 21.459.48 13.769-8.171 25.621-21.471 29.941-4 1.28-6.879 1.599-10.09-1.121-1.44-1.12-3.361-1.759-5.121-2.559-.809-.32-1.448-.161-1.928.639-.48.96.479 1.28 1.119 1.6 2.409 1.12 4.649 2.401 6.889 4.01.48.32 1.93.48 1.121 1.76-.641 1.12-1.6.64-2.4.16-2.24-1.118-4.48-2.08-6.729-3.209-11.369-5.92-23.392-9.12-36.041-10.24-.64 0-1.76-.49-1.92.641-.16 1.44 1.28 1.119 2.08 1.279 8.33.96 16.821 2.4 24.672 5.76 5.61 2.24 10.889 4.97 16.178 7.689 1.12.64 1.442 1.121.641 2.24-.64 1.12-1.279.48-1.92 0-2.249-1.76-4.649-3.2-7.369-4.32-.64-.32-1.44-.8-1.92.16s.321 1.44 1.121 1.76c2.72 1.281 5.12 2.721 7.209 4.961.32.321 1.118.641.318 1.76v.004c-1.769-1.119-3.529-2.239-5.129-3.359-.64-.48-1.44-1.12-2.08 0-.64.96.319 1.279.959 1.76 1.44 1.118 3.041 2.089 4.641 3.049.809.64 1.288 1.44.648 2.24-.649.96-1.288 0-1.768-.32-1.12-.64-2.081-1.28-3.041-1.76-.8-.48-1.6-.96-2.08.32-.48.96.161 1.28.961 1.76 1.28.8 2.4 1.6 3.84 2.4 1.12.64 1.279 1.601 1.119 2.881s-.48 1.919-1.92 1.279c-1.76-.8-3.68-1.44-5.611-2.08-.799-.32-1.759-.8-2.24.16-.64 1.28.8 1.44 1.441 1.6 6.729.96 9.139 4.809 7.85 11.369-.32.8-.16 1.76-.16 3.051l-9.291-3.691c-.64-.32-1.76-.8-2.08.16-.319.8.96.961 1.6 1.281 2.4 1.131 4.651 2.571 7.211 3.211 3.36.96 3.681 3.04 3.201 6.08-19.7-9.451-40.531-14.252-61.99-14.412-21.31-.16-42.609.64-62.32 10.891.8-.48 1.44-1.12 2.24-1.6.8-.64 1.61-1.12 2.41-1.6.48-.48 1.281-.8.801-1.611-.48-.64-1.12-.32-1.76 0-3.371 1.611-6.252 3.85-9.301 6.57.16-1.92 1.132-3.038 2.092-4.158 2.88-3.851 6.558-6.733 10.729-8.973 1.6-.8 2.72-1.76 1.6-3.52-.96-1.769-2.4-.8-3.68-.16-2.091 1.28-4.172 2.72-5.932 4.32-1.92 1.44-3.836 2.88-5.447 4.48 0-.32-.001-.96.799-1.6 2.889-2.08 4.811-4.96 7.85-6.881.64-.32 1.611-.801.971-1.77-.491-.8-1.291-.16-1.932 0-3.04 1.449-5.12 3.851-7.529 6.25.16-1.44.8-2.081 1.451-2.881 5.439-6.729 12.649-10.568 20.5-13.768.479-.16.96-.481 1.439-.652 1.12-.48 2.411-.8 1.6-2.4-.64-1.44-1.76-1.279-2.879-.799-6.09 2.56-12.01 5.131-17.141 9.131-1.92 1.44-3.518 3.04-5.289 4.48-.96-1.28-.159-1.921.641-2.721 2.569-2.4 5.448-4.48 8.488-6.08.971-.64 3.052-1.119 2.252-2.41-.8-1.44-2.41-.001-3.369.479-2.722 1.451-5.12 3.211-7.371 5.291-.48.32-.961.481-1.281.801-.32-.48-.318-.959-.158-1.119 8.169-6.57 16.34-13.131 26.76-15.531 1.44-.16 2.4-.001 3.52.639 13.94 6.88 27.229 5.12 40.209-2.729 1.12-.64 2.241-1.119 3.68-1.119 14.58-.96 27.881 3.209 40.852 8.969 1.45.64 3.05 1.6 4.01-.479.799-1.921-.8-2.561-2.24-3.201-11.382-6.089-23.389-9.93-36.529-10.25h-3.521c1.12-2.4 2.081-4.81 3.041-7.209.32-.801.8-1.76-.16-2.24-.96-.64-1.28.479-1.76 1.279-2.4 3.68-4.492 7.69-7.852 10.73-6.249 5.609-13.938 6.89-21.949 7.209-10.25.48-18.899-2.728-24.35-12.168-.479-.8-1.12-1.452-2.08-.961-1.12.48-.96 1.6-.48 2.4 1.121 2.24 2.72 4.32 4.48 6.24-1.439.96-3.04.799-4.48 1.119-7.849 1.769-14.739 5.13-21.148 9.93-.64.48-1.6 2.241-2.24.641-.64-1.44-3.201-2.881-.961-4.801 1.76-1.6 3.679-2.879 5.439-4.16.969-.969 1.93-1.769 2.57-3.049-3.209.64-5.77 2.399-8.01 4.648-1.92 1.6-2.89 1.921-4.65-.318-1.76-2.731-4.48-4.65-7.049-6.41-.8-.64-1.761-1.12-2.561 0-.8.96-.159 1.759.641 2.559.96.64 1.598 1.282 2.398 1.762-.16.809-.639.639-.959.639-.8 0-1.76-.32-1.76.969-.16 1.12.8.961 1.6 1.121 1.6.32 3.048.479 4.648.959-2.24 1.28-4.649 1.601-7.209 1.281-.96-.16-2.238-.641-2.398.639-.16 1.6 1.278 1.281 2.238 1.281 3.04.32 6.249-.001 9.129-1.121.321 1.44-.638 1.6-1.279 1.76-5.449 2.401-11.05 3.52-17.141 2.08-.8-.32-1.918-1.119-2.238.322-.329 1.279 1.12 1.277 1.92 1.438 4 1.291 8.17.651 12.17 0-.16.971-.959.653-1.439.973-.48.16-1.12.158-1.6.318-.8.32-1.601.642-1.281 1.602s1.12.799 1.76.639l8.17-2.08c-.96 2.24-2.717 3.52-4.648 4.16-7.689 3.2-15.541 3.521-23.381 1.281-4.649-1.28-8.011-4.48-10.1-8.971-5.28-11.049-2.561-26.901 6.248-35.23 2.4-2.4 4.972-3.999 8.012-4.799-.32 2.4-.801 4.48-2.721 6.24-3.051 2.569-4.65 5.928-5.93 9.607-.159.641-.8 1.44.16 1.92 1.12.48 1.439-.639 1.76-1.437.958-2.722 2.079-5.282 4.49-7.691-.16.969-.16 1.608-.32 2.088-.32 1.28.159 2.241 1.279 2.881 1.28.48 2.241-.16 2.881-1.119 1.6-2.722 3.049-5.292 4.328-8.012 1.92-3.52 3.681-7.05 6.412-10.09 4.96-5.6 11.369-7.04 18.42-6.559 3.2.319 6.407.957 9.607 1.438 2.402.32 4.491.48 5.611-2.24.96-2.409.16-4.328-2.729-6.088.319-.32.479-.641.639-.961.48-.48 1.291-.8.48-1.6-.64-.48-1.281-.16-1.6.32-1.441 1.76-3.041 2.559-5.441 1.279 1.44-3.2 4.161-4.96 6.721-7.051.651-.48 2.091-.8 1.291-1.92s-1.77.001-2.41.482c-3.2 2.238-5.921 4.968-8.17 8.168-.16-1.6.799-2.56 1.439-3.68.169-.48.491-.96 0-1.291-.64-.32-1.12-.161-1.6.33-.48.8-.96 1.761-1.6 2.561-.48.64-.64 2.24-1.76 1.76-1.28-.64 0-1.6.32-2.24 3.04-6.571 7.849-11.21 14.42-13.939 14.74-6.4 28.51-4.479 41.809 4.332 6.25 4.158 11.529 9.609 16.98 14.889.96.96 1.921 2.399 3.52 1.119 1.771-1.12.64-2.56-.16-3.68-.96-1.6-1.759-3.04-3.039-4.48-1.28-1.451-2.4-2.891-.641-4.811.321-.48.48-1.28-.32-1.76-.479-.32-.959.161-1.279.641-.48.64-.801 1.12-1.281 1.6-2.409-1.28-3.369-2.721-1.449-5.121.48-.64.96-1.44.16-1.92-1.12-.489-1.6.481-1.92 1.121-.8 2.241-1.92 2.08-3.52.799-.96-.8-1.12-1.439-.48-2.408.96-1.28 1.761-2.56 2.561-3.68.32-.64 1.28-1.28.48-1.92-.96-.96-1.6-.001-2.08.639-.8 1.12-1.601 2.401-2.412 3.521-.639.8-.798 2.248-2.238 1.119-1.12-.8-2.721-.959-1.92-3.039 1.44-3.68 3.038-7.041 5.609-10.252.32-.48 1.6-1.12.48-1.92-.96-.8-1.441.481-1.932.961-2.56 2.88-4.321 6.25-5.76 9.77-.482 1.12-.801 2.561-2.57 1.441-1.28-.8-3.361-.641-2.561-3.361 2.72-8.971 8.972-14.571 17.141-18.1 5.288-2.22 10.529-3.584 15.65-3.857zm125.332 2.098l-19.871 17.619 3.051 3.361 7.318-6.574 1.49 1.611c1.76 2.08 3.362 3.361 4.961 4 1.76.641 3.371.801 4.811.32 1.44-.32 2.56-.959 3.68-1.92 1.929-1.758 2.889-3.69 2.889-5.93 0-2.08-1.12-4.479-3.529-7.039zm-.061 1.775l3.9 4.633c2.079 2.24 3.199 4.319 3.199 6.238 0 1.76-.8 3.37-2.4 4.811-.96.799-2.079 1.44-3.199 1.6-1.28.321-2.572.321-4.012-.32-1.44-.48-2.878-1.758-4.479-3.529l-2.41-2.719-7.307 6.561-1.193-1.369zM161 59.73l-2.559 2.889 12.811 25.461 3.049-3.359-3.801-7.439 6.205-6.795 7.367 2.865.32.158 3.199-3.529zm.365 1.58l23.943 9.242-1.242 1.33-7.846-2.863-7.209 8.012 3.656 7.455-1.17 1.344-11.467-23.068zm270.697.027l-8.33 7.52 2.08 2.4c1.76 1.77 3.2 3.051 4.801 3.371 1.609.479 3.048 0 4.648-1.441 1.44-1.289 2.08-2.568 1.92-4.168-.16-1.44-.961-3.041-2.561-4.801zm-271.221.961l1.279 1.922c.051.103.108.206.166.309l-.006.01c.315.533.692 1.068.959 1.602.331.48.653.96.813 1.439l4.158 8.01 6.73-7.369-.961-.32-7.529-3.041c-.16 0-.479-.16-.959-.32-.48-.32-.959-.479-1.439-.639-.48-.32-.973-.481-1.133-.641zm271.152.957l1.668 1.924c1.44 1.44 2.08 2.88 2.24 4 0 1.12-.481 2.079-1.441 3.039-1.28 1.129-2.398 1.45-3.529 1.129-1.28-.32-2.56-1.289-4.16-3.049l-1.203-1.445zm-267.561 2.205c.2.073.388.136.578.199.48.32.801.48.961.48l6.559 2.648-3.979 4.461-3.221-6.309c-.3-.45-.599-.9-.898-1.48zm165.846 10.508c-.266.012-.538.122-.748.262-3.2 1.12-6.089 3.041-8.969 4.641-.481.32-.961.799-.641 1.279.481.8 1.121.64 1.762.32l8.488-4.641c.32-.16.961-.479.961-1.279-.18-.45-.512-.597-.854-.582zm24.563.742c-.32 0-.799.16-.959.32-.161.48 0 .959.479 1.119 2.722 1.6 4.81 3.839 8.01 5.439-.48-2.4-5.448-6.719-7.529-6.879zm-5.611 1.762c-.32 0-.799.158-.959.318-.16.639.319.8.639 1.121 1.611.96 3.212 2.079 4.813 2.879 1.12.798 1.92 2.41 3.68 2.41-.8-2.409-5.921-6.569-8.172-6.729zm-14.248.896c-.4.02-.801.221-1.121.381-5.771 1.76-10.739 4.81-15.859 7.691-.48.319-1.29.639-.809 1.438.489.96 1.288.48 1.928.16 4.8-2.878 10.09-5.289 15.221-7.529.64-.32 1.44-.479 1.76-1.439-.32-.56-.719-.721-1.119-.701zm-195.6 8.871l-9.461 16.33 3.529 2.09 2.93-5.139 19.342 11.379 2.238-4-10.947-6.232 3.098-5.297c.64-1.12 1.279-1.76 2.08-2.08.639-.169 1.599.001 2.559.641l8.012 4.639 2.25-3.84-8.33-4.809c-1.931-1.28-3.851-1.441-5.611-.801-1.76.48-3.199 1.92-4.488 4l-3.09 5.455-4.867-2.889 4.277-7.367-2.881-1.76zm.424 1.77l1.313.738-4.309 7.422 7.211 4.16 3.689-6.4c1.12-1.929 2.4-3.209 3.84-3.689 1.28-.48 2.879-.159 4.49.801l7.186 4.109-.951 1.607-6.873-3.957c-1.291-.8-2.571-.961-3.531-.801-1.12.32-2.081 1.29-3.041 2.73l-3.527 6.398 10.906 6.299-.949 1.604-19.408-11.262-2.898 5.07-1.311-.738zm318.205 1.113l-28.199 4.488 2.248 4 8.254-1.348 4.602 7.771-5.004 6.225-.16.322 2.24 4.16 17.939-22.26zm-.729 1.502l.99 1.65-15.984 20.09-1.029-1.594 5.213-6.602-5.441-9.279-8.234 1.219-.9-1.529zm.248.896l-2.25.639-2.08.48c-.64.16-1.28.32-1.6.32l-8.969 1.609 4.969 8.479.639-.639 5.121-6.4c.16 0 .319-.32.639-.801l1.121-1.119c.331-.32.651-.64.811-.969zm-187.512.857c-.288.012-.597.122-.877.262-2.731.97-5.131 2.729-7.691 4.33-.48.319-.969.96-.48 1.6.32.8.96.481 1.6.16l7.371-4.32c.48-.32.961-.64.961-1.449v-.002a.84.84 0 0 0-.883-.58zm183.439 1.563c-.147.168-.283.333-.418.469l-.801.799-4.523 5.502-3.014-5.172 7.059-1.129a12.98 12.98 0 0 1 1.697-.469zM277.633 98.33c-3.371.64-6.41 2.4-9.461 4-.32.16-.8.481-.48.961s.8.64 1.289.48c3.04-1.6 6.243-2.881 8.652-5.441zm49.295 1.07c-.294.006-.616.051-.916.051h-.811c-7.52.48-14.891 2.881-22.1 4.961-4.811 1.44-9.611 3.369-14.26 5.609-.64.32-1.759.318-1.279 1.439.48.8 1.44.48 2.08.16a7.8 7.8 0 0 1 1.119-.479c8.329-3.68 16.82-6.572 25.789-8.012l9.779-1.92c.64 0 1.762-.001 1.602-1.121-.1-.6-.513-.699-1.004-.689zm-35.566 1.883c-.14.004-.289.038-.439.088v-.002c-.16 0-.481.16-.801.16-9.45 2.88-18.259 7.211-27.23 11.051-.48.32-1.439.64-.959 1.439.48.64 1.12.16 1.76-.16l13.299-5.6c4.64-1.929 9.292-3.529 13.932-5.289.64-.32 1.279-.479 1.119-1.119-.11-.44-.371-.577-.68-.568zm69.086 7.445c-.155.003-.315.014-.475.014-2.091.32-4.172.479-6.412.959-9.289 1.76-18.42 4.321-27.549 7.361-.651.32-1.771.32-1.451 1.289.16 1.28 1.292.8 2.092.48.16-.16.479-.16.799-.16 7.529-2.571 15.221-4.812 23.23-6.252l9.291-2.08c.64-.16 1.439-.16 1.6-.959-.24-.6-.66-.66-1.125-.652zm24.184 8.313c-.809-.041-.959.708-1.109 1.469-1.291 8.32-6.57 13.451-13.459 17.131-2.56 1.44-5.131 2.718-7.691 4.158-.64.48-2.24.812-1.6 1.932.48 1.28 1.759.48 2.559 0 5.611-2.411 10.892-5.29 15.221-9.611 3.84-3.529 6.411-8.009 7.051-13.609 0-.32.481-1.289-.799-1.449a1.52 1.52 0 0 0-.172-.019zm-260.309.18l-1.439 4.488 11.689 10.412a5.6 5.6 0 0 0 .385.357c-.269.047-.487.121-.705.121l-15.699 2.4-1.602 4.801 21.557-3.615c.972.884 1.539 1.757 1.834 2.494.16.8.16 1.771-.16 2.891-.16.48-.481.961-.641 1.281-.32.48-.65.959-.969 1.279l-.639.641 4.328 1.439.32-.32.959-1.439c.32-.48.481-1.12.801-1.76.48-1.6.64-3.051.48-4.332-.32-1.279-.8-2.559-1.76-3.68-.8-1.119-1.921-2.24-3.361-3.52l-14.58-13.289zm105.209 1.672c-.4-.02-.84.1-1.24.1-9.14 1.28-16.179 6.24-22.27 12.969-.48.481-1.762 1.28-.801 2.08s1.6-.319 2.08-.959c4.64-5.451 10.412-9.291 17.301-11.211l4.65-1.281c.64-.16 1.119-.16 1.279-.959-.24-.56-.6-.718-1-.738zm242.26.098l-25.318 8.16 1.449 4.33 11.121-3.613 3.533 10.889-10.975 3.615 1.121 3.68.16.641 25.148-8.172-1.279-4.32-10.146 3.33-3.604-11.078 10.07-3.301zm-122.391.367c-.281-.007-.568.053-.809.113l-19.859 6.24c-.801.16-1.279.639-1.119 1.439.319 1.12 1.12.801 1.92.641l5.129-1.6 14.088-4.48c.642-.16 1.611-.319 1.771-1.439h.002c-.2-.7-.654-.902-1.123-.914zm-56.131.098c-.655-.013-.81.905-1.07 1.295-2.558 4-6.4 5.441-11.049 5.441-2.72 0-5.449-.481-8.008-1.281-.641-.32-1.281-.64-1.76.32-.321.96.477 1.119 1.117 1.279 2.719.96 5.453 1.601 8.332 1.441 1.119 0 2.24 0 3.359-.16 4.009-.64 7.528-2.24 9.619-6.08.32-.64.8-1.44 0-2.08-.212-.12-.39-.173-.541-.176zm-168.303.102l13.924 12.564c1.291 1.12 2.411 2.239 3.211 3.359.64.96 1.121 2.08 1.281 3.039.32 1.122.16 2.251-.32 3.691-.16.64-.481 1.12-.641 1.6l-.625.965-1.559-.52c.15-.193.287-.4.424-.605l.799-1.76c.32-1.28.48-2.571.16-3.531-.32-1.119-1.118-2.238-2.398-3.359l-.332-.16-19.963 3.197.602-1.811 14.881-2.346c.32 0 .642 0 1.121-.16h.959.48l.32-.961-.32-.32c-.159-.16-.48-.479-.799-.639l-.641-.641-11.123-9.734zm345.908 1.068l.563 1.787-10.066 3.299 4.33 13.449 10.105-3.312.592 1.775-22.609 7.434-.562-1.779 11.195-3.635-4.49-13.451-11.098 3.605-.633-1.723zm-242.172 3.238c-.193-.01-.398.028-.582.088l-9.609 4.479c-.48.16-.8.651-.48 1.131.32.32.641.481.961.641v-.002l10.1-4.809c.16-.16.32-.801.32-.961-.1-.399-.388-.549-.709-.566zm67.068.611c-.359.025-.73.255-1 .436-2.411 1.439-4.811 2.559-7.531 3.199-2.729.64-5.448.802-8.168.971-.8 0-1.92-.33-1.76 1.121 0 1.12 1.12.959 1.92.959h1.92c1.44-.16 3.519-.159 5.768-.479 3.36-.64 6.573-1.771 8.973-4.332.32-.48.959-.96.639-1.439-.21-.35-.481-.455-.76-.436zm54.854.682c-.244.016-.51.114-.754.234l-14.889 4.65c-.64.16-1.121.639-.961 1.439s.799.959 1.439.799c5.12-1.44 10.089-2.718 14.74-4.969.64-.16 1.281-.479 1.281-1.279v-.002c-.1-.7-.45-.9-.857-.873zm18.307 3.996c-.253.005-.489.208-.789.408l-7.691 6.08c-.48.32-.799.639-.48 1.119.32.8.799.48 1.439.32 3.04-1.6 5.612-3.84 8.012-6.24.16-.32.32-.479.48-.799-.16-.32-.32-.481-.48-.641-.18-.183-.338-.251-.49-.248zm-7.998.508c-.233-.001-.501.071-.801.221l-7.852 5.439c-.48.32-1.28.96-.799 1.6.639.96 1.44.48 1.92.16l7.85-5.119c.32-.32.641-.639.641-1.279-.11-.66-.447-1.018-.959-1.021zm-15.861 2.941c-1.6.32-3.041.639-4.652 1.119-.64.16-1.279.639-1.119 1.439.32.8.96 1.121 1.76.801l4.492-1.439c.64-.16 1.119-.481.959-1.281-.32-.64-.799-.639-1.439-.639zm-98.602 13.123c-.174.011-.359.066-.559.166-4.009 1.92-7.85 3.999-11.859 5.93-.48.16-.961.481-.801.961s.479.639 1.119.479c4.171-1.771 8.649-3.69 12.82-6.09.32-.159.48-.641.32-.961-.33-.33-.659-.509-1.041-.484zm-132.408 6.896l-.641 5.441 9.898 11.322-11.018-1.393-.641 4.48 26.432 3.209.479-4.49-11.471-1.383 12.76-9.027.48-4 .16-1.439-14.971 10.287zm.99 3.195l10.229 11.533 13.6-9.309-.258 2.016-13.443 9.387-10.285-11.812zm185.984.904c-.943-.02-1.866-.021-2.746.059-.96 0-1.92.321-2.24 1.441-.16.96.001 1.758.641 2.398.8.8 1.919.48 3.039.48 7.531.32 15.221.479 22.752 2.57 2.24.64 4.809.801 7.209.641.8 0 1.76 0 2.08-1.121.32-1.129-.481-1.608-1.281-2.088-1.6-.96-3.36-1.6-5.289-1.92-7.04-1.28-14.25-2.24-21.299-2.4v-.002c-.96 0-1.922-.039-2.865-.059zm181.166 1.82l-26.432 3.039 1.76 14.58.002.639 4.16-.318-1.201-10.822 7.52-.937 1.211 10.158 4.012-.479-1.211-10.148 6.568-.684 1.211 10.832 4-.488zm-1.201 1.521l1.434 12.633-1.436.17-1.199-10.805-9.141 1.131 1.072 10.16-1.301.152-1.211-10.154-10.248 1.121 1.217 10.809-1.441.16-1.455-12.662zm-195.125 2.52c-.816-.022-1.854.304-2.484.119-10.891.16-21.14 2.89-30.92 6.73-.64.16-1.761.319-1.281 1.439s1.281.481 1.93.16c9.771-3.679 19.863-5.761 30.432-6.4 1.28-.16 3.687.161 3.527-.959-.069-.845-.568-1.073-1.203-1.09zm-7.25 5.871c-1.061.007-1.965.217-1.965 1.777.16 1.76 1.771 1.439 2.891 1.439 17.779-.48 35.081 2.081 52.541 4.33 1.438.16 3.368 1.119 3.848-1.121.48-2.089-1.76-1.928-3.049-2.408-.32-.16-.639-.16-.799-.32-13.131-3.2-26.593-4.16-40.053-3.68h-12.328c-.361 0-.732-.02-1.086-.018zM113.363 169.5l10.063 1.168-.065.045 13.699 1.672-.178 1.779-23.723-2.732zm156.363 1.514c-.243-.006-.504.018-.744.018-3.851.48-7.532 1.919-11.381 2.879-.64.32-.959.81-.799 1.449 0 .64.479.961 1.119.641 4.009-1.118 8.008-1.769 11.699-3.209.64-.32 1.121-.641.961-1.281-.1-.4-.451-.487-.855-.496zm81.15 8.098c-.319-.009-.616.13-.836.57-.171.48.161.799.641.959l4.32 1.76c.32-.16.801-.16.801-.48.48-.32 0-.799-.32-1.119l-4.16-1.6a1.57 1.57 0 0 0-.445-.09zm-61.955 10.74c.52 0 .959.159 1.039.879.16 1.44-1.278 1.279-2.398 1.439l-10.092 1.441c-10.42 1.44-20.509 3.368-30.76 6.088-.798.16-1.919.801-2.408-.479-.32-1.44.81-1.76 1.77-2.08 13.449-3.529 27.07-6.249 41.01-7.209h.32c.4.08 1-.08 1.52-.08zm43.17 3.92c.16 0 .321.319.959.639-1.76 1.12-3.358.961-4.959 1.121l-17.621.799c-.798 0-1.768.321-2.088-.799-.16-1.28.959-1.281 1.77-1.281zM78.89 195.97c-5.984 0-10.406 4.187-10.406 10.578 0 6.109 4.156 10.234 10.078 10.234 5.719 0 10.422-3.672 10.422-10.609 0-5.984-3.969-10.203-10.094-10.203zm24.23 0c-6.953 0-11.703 4.281-11.703 10.578 0 6.609 4.75 10.203 11.078 10.203 2.734 0 4.859-.469 5.922-.953l-.594-2.062c-1.172.5-2.969.828-4.734.828-5.453 0-8.609-3.156-8.609-8.094 0-5.297 3.484-8.312 8.75-8.312 1.859 0 3.422.359 4.531.828l.688-2.125c-.766-.359-2.531-.891-5.328-.891zm8.934.328v20.156h2.891v-9.453h10.859v9.453h2.922v-20.156h-2.922v8.438h-10.859v-8.437zm-33.289 1.797c4.828 0 7.154 4.188 7.154 8.188 0 4.578-2.593 8.375-7.186 8.375-4.562 0-7.156-3.859-7.156-8.156 0-4.437 2.392-8.406 7.188-8.406zm373.637.484c-2.88 0-5.132.64-6.732 1.92-1.44 1.28-2.238 3.039-2.238 5.119v.801h5.451v-.641c0-.8.319-1.6.799-2.08s1.28-.799 2.24-.799c.8 0 1.44.159 1.92.639s.641.962.641 1.602-.321 1.12-.961 1.76l-3.039 2.73-4.172 3.359c-.96.96-1.76 1.759-2.24 2.559-.48.96-.639 1.921-.639 2.881v1.451h17.299v-5.131h-9.129c.48-.32 1.28-.799 2.08-1.439 1.6-1.12 2.889-1.92 3.689-2.721.96-.64 1.6-1.599 2.24-2.408a5.77 5.77 0 0 0 .959-3.201c0-1.28-.319-2.399-1.119-3.359-.64-.96-1.601-1.76-2.721-2.24-1.28-.48-2.728-.801-4.328-.801zm22.91 0c-3.36 0-5.612.961-6.891 2.881-1.44 1.76-2.08 4.481-2.08 8.01 0 3.52.64 6.24 2.08 8 1.278 1.922 3.531 2.891 6.891 2.891 3.2 0 5.61-.97 6.889-2.891 1.281-1.76 2.08-4.48 2.08-8 0-3.529-.799-6.25-2.08-8.01-1.278-1.92-3.689-2.881-6.889-2.881zm23.549 0c-2.891 0-5.13.64-6.57 1.92-1.6 1.28-2.4 3.039-2.4 5.119v.801h5.439v-.641c0-.8.322-1.6.813-2.08.48-.48 1.28-.799 2.24-.799.8 0 1.44.159 1.92.639s.639.962.639 1.602-.319 1.12-.799 1.76l-3.201 2.73-4.17 3.359c-.96.96-1.76 1.759-2.24 2.559-.48.96-.641 1.921-.641 2.881v1.451h17.301v-5.131h-9.129c.48-.32 1.28-.799 2.08-1.439 1.6-1.12 2.88-1.92 3.68-2.721.969-.64 1.768-1.599 2.248-2.408a5.77 5.77 0 0 0 .961-3.201c0-1.28-.321-2.399-.961-3.359-.8-.96-1.6-1.76-2.889-2.24-1.28-.48-2.56-.801-4.32-.801zm-208.74.32h6.25c.801.16 2.08-.321 2.24 1.119 0 1.28-1.12 1.121-2.08 1.121l-23.709 2.398c-.8 0-1.6.16-2.4.32-1.12.16-2.567.481-2.729-1.119s1.117-1.44 2.248-1.6l20.18-2.24zm224.441 0l-.801 11.85 4.801.641s.16-.16.32-.48c.16-.16.479-.481.799-.641.48-.32.97-.48 1.77-.48.96 0 1.76.321 2.4.961.48.48.799 1.28.799 2.24s-.319 1.6-.799 2.24c-.64.64-1.44.799-2.4.799-1.12 0-1.93-.159-2.41-.799-.64-.48-.959-1.28-.959-2.08h-5.279c0 2.241.798 4 2.398 5.281 1.6 1.289 3.842 1.928 6.891 1.928 1.6 0 3.199-.32 4.479-.969 1.28-.641 2.251-1.601 3.051-2.721.64-.96.961-2.24.961-3.52 0-2.24-.64-4-1.92-5.289-1.289-1.28-3.05-1.92-5.289-1.92-.801 0-1.598.158-2.24.318s-1.291.481-1.611.641c-.424.282-.598.316-.633.43l.313-3.148h9.941V198.9zm-179.861 2.232c.54.007 1.08.127 1.08.967-.16.96-.8 1.279-1.6 1.439l-11.539.961c-1.6.16-2.88.32-4.32.32-1.129.16-2.25.319-2.41-1.121-.322-1.6.959-1.6 1.93-1.76l12.811-.799h3.529c.16 0 .34-.01.52-.008zm140.611 1.607c1.12 0 1.76.321 2.24 1.121s.639 2.24.639 4v3.049c0 1.921-.159 3.2-.639 4s-1.12 1.279-2.24 1.279-1.76-.479-2.24-1.279-.641-2.079-.641-4v-3.049c0-1.76.161-3.2.641-4s1.12-1.121 2.24-1.121zm-176.385 3.246c.452.012.863.214.963.914.16 1.12-.8 1.119-1.6 1.279l-9.289 1.291c-1.6.16-2.401.001-2.561-1.119-.32-1.291.64-1.291 1.6-1.451 3.36-.32 6.73-.641 10.09-.801.24-.06.526-.121.797-.113zm-22.881 3.287c.77-.033 1.284.318 1.424 1.158.16.8-.48 1.119-1.129 1.279-2.72.48-5.599.799-8.33.959-.96.16-1.439-.479-1.439-1.439-.16-.8.479-1.439 1.279-1.439 1.611-.16 3.05-.16 4.65-.16 1.12-.16 2.079-.16 3.199-.32a2.85 2.85 0 0 1 .346-.037zm-139.299 1.668v5.166h5.166v-5.166zm-80.037 35.357c-6.56 0-12.169 1.44-16.818 4.16-4.48 2.72-8.012 6.569-10.412 11.529-2.239 4.971-3.52 10.572-3.52 17.141 0 6.56 1.12 12.491 3.359 17.291a24.65 24.65 0 0 0 9.771 11.529c4.329 2.731 9.769 4.01 16.18 4.01 3.689 0 6.569-.159 9.129-.639 2.571-.48 4.971-1.121 7.371-1.93v-7.041c-2.4.801-4.96 1.28-7.371 1.76-2.56.481-5.117.801-7.848.801-7.369 0-12.809-2.4-16.5-6.889-3.68-4.64-5.602-11.053-5.602-18.893 0-8.009 2.08-14.247 5.92-18.898 4.009-4.48 9.462-6.891 16.182-6.891 2.891 0 5.609.489 8.01 1.129 2.409.64 4.65 1.44 6.57 2.4l3.209-6.729c-4.969-2.56-10.9-3.842-17.631-3.842zm95 .643L126.883 311h8.008l7.691-19.699h25.309L175.582 311h8.328l-24.828-64.059zm265.131 0L391.851 311h8.17l7.689-19.699h25.311L440.711 311h8.33l-24.988-64.059zm81.539 0L473.553 311h8.008l7.691-19.699h25.309L522.252 311h8.328l-24.828-64.059zm-420.359.318v7.051h19.859V311h8.172V254.31h19.709v-7.051zm114.541 0V311h8.17v-24.83h7.371c6.249 0 11.368-.961 15.059-2.881 3.68-1.92 6.411-4.318 8.01-7.369 1.6-3.2 2.4-6.4 2.4-9.92 0-5.931-1.921-10.57-5.77-13.939-3.84-3.2-9.933-4.801-18.262-4.801zm54.309 0l.002 63.742h8.969l35.24-53.012h.32l-.32 4.482-.32 6.889-.16 7.051V311h7.531v-63.74h-8.971l-35.08 52.85h-.32l.16-4.488.32-6.721.16-6.57v-35.07zm95.641 0V311h22.42c6.891 0 12.18-1.608 16.18-4.648 4.009-3.2 5.93-7.691 5.93-13.451 0-3.2-.639-5.93-1.92-8.01-1.12-2.081-2.889-3.681-5.129-4.801-2.08-1.119-4.48-1.92-7.211-2.4v-.48c3.851-.798 6.891-2.409 8.971-4.809 2.089-2.56 3.209-5.6 3.209-9.451 0-5.76-2.081-9.768-6.25-12.168-4-2.4-10.09-3.521-17.939-3.521zm114.859 0v63.42c0 2.721-.478 4.8-1.279 6.24-.969 1.6-1.929 2.559-3.369 3.199-1.28.64-2.72.801-4.16.801-1.291 0-2.41 0-3.371-.16-1.12-.16-2.08-.321-3.039-.641v6.732c.799.48 1.759.639 2.879.959.96.16 2.24.16 3.691.16 4.96 0 8.968-1.44 12.008-4.32 3.051-2.891 4.652-7.371 4.652-13.611v-62.779zm74.17 0v7.051H551.4V311h8.172V254.31h19.869v-7.051zm-322.639 6.891c5.609 0 9.609.959 12.34 3.039 2.72 1.92 4 5.12 4 9.131 0 4.8-1.6 8.161-4.48 10.092-3.051 1.919-7.53 2.879-13.619 2.879h-6.412v-25.139h8.172zm141.619.002h10.57c5.45 0 9.291.639 11.852 2.24 2.409 1.599 3.689 4 3.689 7.52 0 3.529-1.122 6.088-3.053 7.848-2.08 1.76-5.918 2.721-11.209 2.721h-11.85zm-195.291 1.117c.331.64.651 1.761.971 3.041.32 1.44.801 2.72 1.281 4l.799 2.57 7.209 19.209h-20.187l7.209-19.209 1.279-4.172zm265.131 0c.16.64.479 1.761.959 3.041l1.121 4 .971 2.57 7.199 19.209h-20.34l7.371-19.209 1.277-4.172zm81.539 0c.331.64.651 1.761.971 3.041.32 1.44.801 2.72 1.281 4l.799 2.57 7.209 19.209h-20.189l7.211-19.209 1.279-4.172zm-151.379 25.779h12.17c5.929 0 10.089 1.119 12.34 3.199 2.4 1.92 3.521 4.652 3.521 8.012 0 3.68-1.121 6.569-3.361 8.65-2.249 2.24-6.088 3.359-11.859 3.359h-12.811zM27.883 344.31l-3.854.002-3.199 7.52-.48 1.279c-.16.48-.32.961-.48 1.281l-.479-1.281c-.32-.32-.48-.799-.48-.959l-3.369-7.84h-4l6.248 12.969c-.32.48-.649 1.12-.969 1.439-.32.48-.96.641-1.76.641-.48 0-.959.001-1.439-.16-.48 0-.959-.16-1.279-.32v3.199c.48.161.959.322 1.439.322.48.16.959.16 1.439.16 1.44 0 2.57-.321 3.371-.641.799-.481 1.598-1.122 2.078-1.922.64-.8 1.122-1.759 1.602-2.879zm578.789 3.84a1.45 1.45 0 0 0-1.119.48c-.16.16-.32.479-.32.959 0 .32.16.801.32.961a1.45 1.45 0 0 0 1.119.48 3.14 3.14 0 0 0 .262-.012.45.45 0 0 1-.102.172c-.16.32-.481.479-.801.639s-.799.32-1.279.32v2.08a2.7 2.7 0 0 0 1.6-.48c.48-.16.801-.639.961-.959.32-.48.479-.961.639-1.281 0-.48.16-.959.16-1.279v-.641c0-.32-.16-.799-.32-.959-.16-.32-.479-.48-1.119-.48zm4.01 0c-.481 0-.801.16-.961.48-.329.16-.328.479-.328.959 0 .32-.001.801.328.961.16.32.481.48 1.121.48a1.45 1.45 0 0 0 .1-.002.49.49 0 0 1-.1.162c-.159.32-.481.479-.801.639a3.06 3.06 0 0 1-1.289.32v2.08a2.73 2.73 0 0 0 1.609-.48c.48-.16.799-.639.959-.959.32-.48.481-.961.641-1.281 0-.48.16-.959.16-1.279v-.641c0-.32.001-.799-.32-.959-.16-.32-.48-.48-1.119-.48zm-537.949.16c-1.28 0-2.561.322-3.521.801s-1.758 1.278-2.398 2.238c-.48 1.12-.811 2.563-.811 4.172 0 2.4.489 4.159 1.609 5.279s2.721 1.76 4.801 1.76c.96 0 1.77-.16 2.41-.32s1.12-.319 1.76-.799V358.4c-.64.32-1.12.641-1.76.801s-1.29.32-2.09.32c-.96 0-1.6-.321-2.24-.961-.48-.64-.639-1.759-.639-3.039 0-2.731.959-4.172 2.879-4.172.48 0 .96 0 1.449.16.64.161 1.121.481 1.762.641l.959-2.881c-.48-.32-1.118-.481-1.76-.641s-1.45-.318-2.41-.318zm41.008 0c-2.08 0-3.678.64-4.959 1.92-1.12 1.12-1.76 2.882-1.76 5.131 0 1.6.319 2.88.799 4a8.57 8.57 0 0 0 2.4 2.398c.96.48 2.079.801 3.359.801 2.091 0 3.693-.64 4.973-1.92 1.12-1.12 1.76-2.879 1.76-5.279 0-1.45-.321-2.732-.801-3.852a8.55 8.55 0 0 0-2.4-2.398 7.43 7.43 0 0 0-3.371-.801zm56.232 0a7.42 7.42 0 0 0-3.361.801c-1.12.479-1.92 1.278-2.4 2.238-.64 1.12-.971 2.563-.971 4.172 0 2.4.651 4.159 1.771 5.279s2.721 1.76 4.641 1.76c.96 0 1.759-.16 2.408-.32.64-.16 1.28-.319 1.76-.799V358.4c-.48.32-1.12.641-1.76.801a7.17 7.17 0 0 1-2.088.32c-.8 0-1.6-.321-2.08-.961s-.801-1.759-.801-3.039c0-2.731.961-4.172 2.881-4.172.64 0 1.118 0 1.607.16.48.161.961.481 1.602.641l1.121-2.881c-.481-.32-1.121-.481-1.762-.641-.8-.16-1.608-.318-2.568-.318zm33.799 0c-.96 0-1.919.16-2.719.32-.96.32-1.761.479-2.561.959l1.279 2.4c.64-.16 1.28-.479 1.92-.639s1.28-.32 1.92-.32c.649 0 1.289.159 1.609.479s.48.962.48 1.602v.639h-2.25c-2.08.16-3.679.481-4.639 1.281-.96.651-1.602 1.771-1.602 3.211s.481 2.559 1.281 3.199c.8.801 1.759 1.121 3.039 1.121 1.12 0 2.081-.161 2.73-.482.64-.32 1.28-.958 1.76-1.598h.16l.639 1.76h2.721v-9.131c0-1.6-.48-2.88-1.6-3.68-.96-.8-2.241-1.121-4.17-1.121zm27.561 0c-.96 0-1.919.16-2.719.32-.971.32-1.772.479-2.412.959l1.121 2.4c.64-.16 1.29-.479 1.93-.639s1.28-.32 1.92-.32 1.282.159 1.602.479a2.45 2.45 0 0 1 .639 1.602v.639h-2.398c-2.08.16-3.692.481-4.652 1.281-.96.651-1.439 1.771-1.439 3.211s.32 2.559 1.121 3.199c.798.801 1.758 1.121 3.049 1.121 1.12 0 2.081-.162 2.721-.482s1.28-.958 1.76-1.598h.16l.799 1.76h2.57v-9.131c0-1.6-.48-2.88-1.449-3.68-.96-.8-2.401-1.121-4.32-1.121zm43.73 0v.002c-.96 0-1.76.159-2.4.639a3.14 3.14 0 0 0-1.439 1.441h-.32l-.48-1.762h-3.051v19.701h3.852v-5.611c0-.64-.16-1.28-.32-1.92h.32c.32.48.799.8 1.279 1.121.64.48 1.44.641 2.4.641a4.88 4.88 0 0 0 3.848-1.762c.96-1.28 1.441-3.04 1.441-5.439 0-2.251-.481-4.011-1.441-5.291-.96-1.12-2.248-1.76-3.687-1.76zm16.18 0c-.96 0-1.921.16-2.721.32-.96.32-1.76.479-2.4.959l1.121 2.4c.64-.16 1.28-.479 1.92-.639s1.28-.32 1.92-.32c.8 0 1.28.159 1.6.479.491.32.65.962.65 1.602v.639h-2.41c-2.08.16-3.521.481-4.641 1.281-.96.651-1.449 1.771-1.449 3.211s.329 2.559 1.129 3.199c.8.801 1.761 1.121 3.041 1.121 1.12 0 2.081-.162 2.721-.482s1.279-.958 1.768-1.598h.16l.801 1.76h2.561v-9.131c0-1.6-.481-2.88-1.441-3.68s-2.397-1.121-4.328-1.121zm199.77 0c-2.08 0-3.68.64-4.961 1.92-1.12 1.12-1.76 2.882-1.76 5.131 0 1.6.321 2.88.801 4a8.57 8.57 0 0 0 2.398 2.398c.96.48 2.081.801 3.361.801 2.091 0 3.691-.64 4.971-1.92 1.12-1.12 1.76-2.879 1.76-5.279 0-1.45-.321-2.732-.801-3.852a8.55 8.55 0 0 0-2.398-2.398 7.43 7.43 0 0 0-3.371-.801zm35.881 0c-.96 0-1.921.16-2.881.32-.96.32-1.76.479-2.4.959l1.281 2.4c.64-.16 1.28-.479 1.92-.639.48-.16 1.28-.32 1.92-.32a2.7 2.7 0 0 1 1.6.479c.329.32.488.962.488 1.602v.639h-2.408c-2.08.16-3.52.481-4.48 1.281-1.12.651-1.6 1.771-1.6 3.211s.319 2.559 1.119 3.199c.8.801 1.921 1.121 3.041 1.121 1.28 0 2.079-.162 2.719-.482s1.29-.958 1.93-1.598l.801 1.76h2.559v-9.131c0-1.6-.479-2.88-1.439-3.68s-2.399-1.121-4.168-1.121zm-494.689.32v13.609h3.85v-6.881l5.439 6.881h4.33l-5.93-7.049 5.451-6.561h-4.172l-5.119 6.561v-6.561zm16.02 0l5.447 13.609-.318.641c-.16.639-.478 1.28-.959 1.76s-1.122.639-1.922.639h-.809c-.16 0-.481-.16-.641-.16v3.051h.809c.32.16.64.16 1.121.16 1.279 0 2.4-.319 3.361-1.119 1.12-.64 1.758-1.771 2.398-3.211l5.771-15.369h-4l-2.572 7.689c-.159.32-.159.799-.318 1.119s-.16.801-.16 1.281h-.16c0-.48 0-.961-.16-1.281 0-.32-.16-.799-.16-1.119l-2.721-7.689zm41.648 0v13.609h3.85v-6.881l5.611 6.881h4.16l-5.932-7.049 5.451-6.561h-4l-5.291 6.561v-6.561zm35.891 0v14.568c0 .8-.16 1.441-.48 1.6-.32.32-.799.48-1.279.48h-.961c-.16 0-.491-.16-.811-.16v2.891c.32.16.651.16 1.131.16.48.16.961.16 1.281.16 1.28 0 2.079-.161 2.879-.641.64-.48 1.28-.96 1.6-1.609.32-.801.48-1.439.48-2.24v-15.209zm10.09 0v13.609h4.49l6.24-9.609v1.119c-.16.48-.16.96-.16 1.609v1.439 5.441h3.531v-13.609h-4.492l-6.238 9.609v-.801c0-.32.16-.639.16-1.119v-1.289-.961-5.439zm43.57 0v13.609h3.689v-10.889h4.971v10.889h3.84v-13.609zm36.211 0v14.568c0 .8-.16 1.441-.48 1.6-.32.32-.801.48-1.281.48h-.799c-.32 0-.641-.16-.961-.16v2.891c.32.16.641.16 1.121.16.48.16.959.16 1.439.16 1.12 0 2.081-.161 2.721-.641.8-.48 1.28-.96 1.6-1.609.32-.801.48-1.439.48-2.24v-15.209zm34.119 0v2.721h4.488v10.889h3.68v-10.889h4.492v-2.721zm56.068 0l-.479 4c-.321 1.28-.641 2.561-1.121 3.85-.319 1.12-.799 2.079-1.439 3.039h-1.121v7.691h3.361v-4.971h9.131v4.971h3.369v-7.691h-1.93v-10.889zm16.5 0v13.609h4.492l6.24-9.609c0 .32 0 .639-.16 1.119v1.609c0 .48-.16.959-.16 1.439v5.441h3.688v-13.609h-4.488l-6.283 9.418c.044-.129.043-.304.043-.609v-1.119c.16-.48.16-.8.16-1.289v-.961-5.439zm20.35 0v13.609h11.691v4.971h3.361v-7.691h-2.08v-10.889h-3.682v10.889h-5.449v-10.889zm19.701 0v13.609h4.49l6.24-9.609v1.119c-.16.48-.16.96-.16 1.609v1.439 5.441h3.531v-13.609h-4.492l-6.248 9.609v-.801c0-.32.16-.639.16-1.119v-1.289c0-.32.16-.801.16-.961v-5.439zm20.512 0v14.568c0 .8-.161 1.441-.65 1.6-.32.32-.801.48-1.281.48h-.799c-.32 0-.641-.16-.961-.16v2.891c.32.16.801.16 1.121.16.48.16.959.16 1.439.16 1.13 0 2.091-.161 2.73-.641.8-.48 1.28-.96 1.6-1.609.321-.801.48-1.439.48-2.24v-15.209zm8.01 0l5.439 13.609-.16.641c-.32.639-.639 1.28-1.119 1.76s-.962.639-1.762.639h-.959c-.16 0-.481-.16-.641-.16v3.051h.801c.32.16.799.16 1.119.16 1.28 0 2.561-.319 3.521-1.119.96-.64 1.769-1.771 2.248-3.211l5.762-15.369h-4.002l-2.568 7.689c0 .32-.16.799-.32 1.119 0 .32-.16.801-.16 1.281-.16-.48-.16-.961-.16-1.281-.16-.32-.16-.799-.32-1.119l-2.559-7.689zm26.43 0v13.609h4.48l6.408-9.609c0 .32-.16.639-.16 1.119s0 .96-.16 1.609v1.439 5.441h3.691v-13.609h-4.49l-6.41 9.609c0-.16 0-.321.16-.801v-1.119c0-.48.16-.8.16-1.289v-.961-5.439zm28.35 0v13.609h4.488l6.252-9.609v1.119c0 .48-.162.96-.162 1.609v1.439 5.441h3.521v-13.609h-4.49l-6.24 9.609v-.801c.16-.32.16-.639.16-1.119v-1.289c.16-.32.16-.801.16-.961v-5.439zm20.51 0v13.609h3.68v-5.6h5.289v5.6h3.68v-13.609h-3.68v5.279h-5.289v-5.279zm36.84 0v13.609h6.57c1.44 0 2.558-.16 3.529-.48.8-.32 1.44-.799 1.92-1.439.32-.64.641-1.28.641-2.08s-.319-1.6-.959-2.08c-.48-.48-1.28-.969-2.24-.969v-.16c.96-.16 1.6-.481 2.08-.961s.639-1.12.639-1.92-.319-1.6-.799-2.08-1.12-.959-1.92-1.119c-.811-.32-1.771-.32-2.891-.32zm35.58 0v13.609h11.689v4.971h3.361v-7.691h-2.08v-10.889h-3.68v10.889h-5.451v-10.889zm19.85 0v13.609h4.49l6.25-9.609v1.119c-.16.48-.16.96-.16 1.609v1.439 5.441h3.52v-13.609h-4.488l-6.24 9.609v-.801c0-.32 0-.639.16-1.119v-1.289-.961-5.439zm20.352 0v14.568c0 .8-.16 1.441-.48 1.6-.32.32-.801.48-1.281.48h-.799c-.32 0-.641-.16-.961-.16v2.891c.32.16.641.16 1.121.16.48.16.959.16 1.439.16 1.12 0 2.081-.161 2.721-.641.8-.48 1.28-.96 1.6-1.609.32-.801.48-1.439.48-2.24v-15.209zm8.17 0l5.439 13.609-.32.641c-.16.639-.479 1.28-.959 1.76s-1.122.639-1.922.639h-.799c-.16 0-.481-.16-.641-.16v3.051h.801c.32.16.639.16 1.119.16 1.28 0 2.4-.319 3.52-1.119.969-.64 1.61-1.771 2.25-3.211l5.762-15.369h-4.002l-2.561 7.689c-.16.32-.158.799-.318 1.119 0 .32-.16.801-.16 1.281h-.16c0-.48 0-.961-.16-1.281 0-.32-.16-.799-.16-1.119l-2.729-7.689zm-80.102 2.561h2.561c1.28 0 1.92.479 1.92 1.279 0 .48-.161.959-.641 1.119-.32.16-.961.32-1.76.32h-2.08zm-393.131.158c.971 0 1.612.322 2.092.961.48.802.641 1.76.641 3.051 0 1.44-.161 2.399-.641 3.199-.48.64-1.121.961-2.092.961-1.12 0-1.76-.321-2.24-.961-.48-.8-.639-1.759-.639-3.199 0-1.291.159-2.25.639-3.051.48-.639 1.12-.961 2.24-.961zm377.271 0c.971 0 1.612.322 2.092.961.48.802.639 1.76.639 3.051 0 1.44-.159 2.399-.639 3.199-.48.64-1.121.961-2.092.961-1.119 0-1.76-.321-2.24-.961-.48-.8-.639-1.759-.639-3.199 0-1.291.159-2.25.639-3.051.48-.639 1.121-.961 2.24-.961zm-217.23.002c1.76 0 2.561 1.281 2.561 4.012 0 1.279-.161 2.398-.641 3.039-.32.799-.96 1.119-1.76 1.119-1.12 0-1.76-.32-2.24-1.119-.32-.641-.479-1.76-.479-3.039v-.332c0-1.28.159-2.239.479-2.719.48-.64 1.12-.961 2.08-.961zm35.24 0h2.73v8.168h-5.131c.64-1.12 1.12-2.4 1.6-3.84.32-1.289.641-2.728.801-4.328zM204.262 356h1.439v1.121c0 .8-.161 1.438-.801 1.918a2.67 2.67 0 0 1-1.928.801c-.64 0-.961-.159-1.441-.479-.32-.161-.479-.642-.479-1.121 0-.641.319-1.119.799-1.6.48-.32 1.281-.641 2.41-.641zm27.711 0h1.439v1.121c0 .8-.319 1.438-.959 1.918a2.65 2.65 0 0 1-1.92.801c-.64 0-.961-.159-1.281-.479-.32-.161-.639-.642-.639-1.121 0-.641.319-1.119.799-1.6.48-.32 1.281-.641 2.561-.641zm59.91 0h1.449v1.121c0 .8-.331 1.438-.811 1.918-.64.48-1.28.801-2.08.801-.64 0-.959-.159-1.279-.479-.32-.161-.48-.642-.48-1.121a2.05 2.05 0 0 1 .641-1.6c.48-.32 1.281-.641 2.561-.641zm235.488 0h1.449v1.121c0 .8-.32 1.438-.809 1.918-.64.48-1.28.801-2.08.801-.48 0-.959-.159-1.279-.479-.32-.161-.48-.642-.48-1.121a2.05 2.05 0 0 1 .641-1.6c.48-.32 1.279-.641 2.559-.641zm-20.5.48h2.4a5.97 5.97 0 0 1 1.92.318c.32.32.639.641.639 1.121 0 .64-.319 1.119-.799 1.439-.48.16-.96.32-1.76.32h-2.4zm-503.34 3.721c-.64 0-1.28.16-1.6.48-.48.16-.8.641-1.129.961l-.48 1.439c-.145.29-.159.711-.16 1.025-.088.17-.155.402-.16.697l-.002.037h.002c0 .32.16.799.32.959.32.32.638.48 1.129.48.64 0 .961-.16 1.121-.48.32-.16.32-.479.32-.959 0-.32 0-.641-.32-.961-.16-.32-.641-.479-1.121-.479a2.16 2.16 0 0 0-.088.002c.028-.05.059-.103.088-.162a1.25 1.25 0 0 1 .641-.641c.48-.16.799-.16 1.439-.16zm4 0c-.64 0-1.28.16-1.6.48-.48.16-.799.641-1.119.961l-.48 1.439c-.16.32-.16.799-.16 1.119v.641c0 .32 0 .799.32.959.16.32.479.48 1.119.48.48 0 .801-.16.961-.48.32-.16.32-.479.32-.959 0-.32 0-.641-.32-.961-.16-.32-.481-.479-1.121-.479a1.45 1.45 0 0 0-.072 0 2.39 2.39 0 0 1 .072-.16c.16-.32.481-.481.801-.641s.639-.16 1.279-.16zm315.43 7.729c-.16 0-.32.08-.48.24l-13.779 12.49c-2.56 2.24-2.08 4.479-2.4 7.359-.16 1.12-.639 2.251-1.439 3.211l-5.289 5.92c.48.32.959.799 1.439 1.279 3.369-3.2 5.93-5.119 5.93-5.119.96-.8 2.08-1.279 3.211-1.439 2.88-.32 5.12.16 7.369-2.4l12.65-13.779c.159-.243.159-.557 0-.801-.32-.32-.801-.32-.961 0l-14.1 14.09c-.48.331-.959.331-1.279-.16-.32-.32-.16-.801.16-1.121l13.939-13.77c.32-.48.32-.959 0-1.279s-.959-.32-1.279 0l-13.941 13.93c-.146.153-.348.24-.56.24s-.414-.087-.56-.24c-.154-.146-.241-.349-.241-.561s.087-.415.241-.561l13.93-13.928c.331-.32.331-.961 0-1.281-.32-.32-.801-.32-1.281.16l-13.768 13.77c-.32.32-.96.48-1.291.16-.32-.32-.32-.799 0-1.279l14.1-13.93c.32-.32.32-.801.16-.961s-.32-.24-.48-.24zm-48.859 2.32c-2.72 0-3.68 1.279-3.68 1.279s-1.93 1.44-.801 6.73c.96 4.32 5.759 16.33 15.699 16.33.64 0 1.281 0 2.082-.16h1.279c1.919 0 3.841.8 5.451 2.08.8.96 1.919 1.921 2.879 2.881.64.64 1.12 1.13 1.6 1.77 1.6 1.6 3.211 3.68 4.811 5.76 4.8 6.729 15.059 23.061 21.779 23.061.971 0 1.93-.479 2.73-1.279 6.249-6.249-14.101-18.74-21.951-24.5-2.058-1.434-3.989-3.044-5.77-4.811-.64-.48-1.12-.961-1.6-1.439-1.12-.961-2.079-2.08-3.039-2.881-1.6-1.92-2.4-4.321-2.08-6.73 1.92-11.371-11.54-16.649-16.18-17.609-1.291-.32-2.251-.48-3.211-.48zm21.951 30.102c-1.44 1.289-3.053 2.728-4.812 3.848-7.849 5.76-28.188 18.251-21.937 24.5 6.239 6.251 18.899-14.089 24.51-21.779 1.28-1.759 2.56-3.361 3.84-4.801z" fill="#fff"/></svg>