<svg xmlns="http://www.w3.org/2000/svg" version="1.1" xmlns:xlink="http://www.w3.org/1999/xlink" width="1000" height="1000"><style>
    #light-icon {
      display: inline;
    }
    #dark-icon {
      display: none;
    }

    @media (prefers-color-scheme: dark) {
      #light-icon {
        display: none;
      }
      #dark-icon {
        display: inline;
      }
    }
  </style><g id="light-icon"><svg xmlns="http://www.w3.org/2000/svg" version="1.1" xmlns:xlink="http://www.w3.org/1999/xlink" width="1000" height="1000"><g><g transform="matrix(4.321048922527007,0,0,4.321048922527007,-5.684341886080802e-14,130.78397784442654)"><svg xmlns="http://www.w3.org/2000/svg" version="1.1" xmlns:xlink="http://www.w3.org/1999/xlink" width="231.42529" height="170.89185"><svg version="1.1" id="svg1" width="231.42529" height="170.89185" viewBox="0 0 231.42529 170.89185" sodipodi:docname="stari vajat sredjen nnn.pdf" xmlns:inkscape="http://www.inkscape.org/namespaces/inkscape" xmlns:sodipodi="http://sodipodi.sourceforge.net/DTD/sodipodi-0.dtd" xmlns="http://www.w3.org/2000/svg" xmlns:svg="http://www.w3.org/2000/svg">
  <defs id="defs1"></defs>
  <sodipodi:namedview id="namedview1" pagecolor="#ffffff" bordercolor="#000000" borderopacity="0.25" inkscape:showpageshadow="2" inkscape:pageopacity="0.0" inkscape:pagecheckerboard="0" inkscape:deskcolor="#d1d1d1">
    <inkscape:page x="0" y="0" width="231.42529" height="170.89185" id="page2" margin="0" bleed="0"></inkscape:page>
  </sodipodi:namedview>
  <g id="layer-MC0" inkscape:groupmode="layer" inkscape:label="Layer 1" transform="translate(695.49854,-343.62767)">
    <path id="path4" d="m -644.54246,460.12715 c -8.01066,8.64933 -28.35999,10.40933 -38.13066,4.8 -9.60933,-5.44 -12.98,-14.25067 -12.82,-24.82 0.16,-13.77067 8.65067,-26.9 20.51067,-31.38933 3.04,-1.12134 4.96,-2.72134 6.72933,-5.44134 4.16,-6.88933 10.89067,-10.24933 18.9,-10.72933 2.72,-0.16 4.16,-0.96 5.13066,-3.84 4.64,-12.66 16.34,-20.34 30.42934,-20.66 5.77066,0 11.38133,0.48 16.82,1.92 0.97066,0.32 1.93066,1.12 2.41066,-0.64 3.36,-12.01066 12.00934,-18.74 23.06934,-22.74 16.02,-5.61066 30.75066,-3.52 43.41066,8.64934 0.8,0.8 1.76,0.8 2.72,0.96 12.18,1.6 23.38933,5.44 32.52,13.93066 3.53067,3.36 5.93067,7.36934 7.05067,12.16933 0.31866,1.12 0.63866,1.92134 1.92,2.4 10.89866,2.72 16.81866,10.09067 18.90933,20.66 2.56,13.13067 -0.32,24.82 -9.78,34.59067 -3.2,3.36 -7.2,5.92933 -11.85067,6.72933 -9.12933,1.44 -13.3,7.52 -15.38,15.53067 -2.24,8.48933 -2.08,17.14 -0.31866,25.78 0.31866,1.92933 2.39866,3.36933 0.96,5.60933 -1.12134,1.76 -3.04,2.4 -4.80134,3.36 -12.97999,8.01067 -27.23866,12.33067 -42.29999,14.73067 -20.97867,3.36933 -42.12934,3.84933 -63.26934,0.80933 -7.05066,-0.96933 -13.62,-3.04933 -20.19066,-5.60933 -6.56934,-2.56 -9.76934,-7.37067 -10.56934,-14.09067 -0.64,-6.24933 -0.32,-12.48933 -0.48,-18.74 -0.16,-4.64 -0.32,-9.12933 -1.6,-13.92933 m 138.88933,-5.13067 c 0.8,-1.11866 0,-1.43866 -0.32,-1.76 -2.08933,-2.24 -4.48933,-3.67866 -7.20933,-4.96 -0.8,-0.32 -1.6,-0.8 -1.12,-1.76 0.48,-0.95866 1.28,-0.48 1.92,-0.16 2.72,1.12 5.12,2.56 7.36933,4.32 0.64134,0.48 1.28,1.12 1.92,0 0.80134,-1.11866 0.48,-1.6 -0.64,-2.24 -5.28933,-2.71866 -10.56933,-5.44933 -16.17866,-7.68933 -7.85067,-3.36 -16.34133,-4.8 -24.67067,-5.76 -0.8,-0.16 -2.24,0.16 -2.08,-1.28 0.16,-1.13067 1.28,-0.64 1.92,-0.64 12.64934,1.12 24.67067,4.32 36.04,10.24 2.24933,1.12933 4.48933,2.09067 6.72933,3.20933 0.8,0.48 1.76,0.96 2.40134,-0.16 0.80933,-1.28 -0.64134,-1.44 -1.12134,-1.76 -2.24,-1.60933 -4.48,-2.88933 -6.88933,-4.00933 -0.64,-0.32 -1.6,-0.64 -1.12,-1.6 0.48,-0.8 1.12,-0.96 1.92933,-0.64 1.76,0.8 3.68,1.44 5.12,2.56 3.21067,2.72 6.09067,2.4 10.09067,1.12 13.3,-4.32 21.94933,-16.17067 21.46933,-29.94 -0.47866,-12.97067 -7.04933,-20.34 -20.02,-21.46 -4.64933,-0.32 -9.29866,-0.32 -13.94,-0.32 -1.6,0 -2.88933,-0.64 -3.20933,-2.24 -0.32,-1.93067 1.12933,-2.25067 2.40933,-2.73067 3.84,-1.27866 7.69067,-2.08 11.69067,-1.92 2.72933,0.16 2.88933,-0.8 1.92,-2.87999 -1.12,-2.56 -2.56,-4.64934 -4.48,-6.56934 -5.93067,-6.08 -13.3,-9.45066 -21.30933,-11.53066 -2.08133,-0.64 -4,-1.44 -6.25067,-1.12 0.32934,0.48 0.49067,0.96 0.64934,1.44 0.48,1.28 1.76133,2.89066 -0.15867,4.01066 -1.77067,0.96 -2.89067,-0.48 -3.69067,-1.93066 -2.08,-3.36 -4.80933,-6.08 -7.53066,-8.48 -12.00934,-10.72934 -25.78934,-10.88934 -39.88934,-4.96934 -8.16933,3.52934 -14.42,9.12934 -17.14,18.1 -0.8,2.72 1.28,2.56 2.56,3.36 1.76934,1.12 2.08934,-0.32 2.57067,-1.44 1.43867,-3.52 3.19867,-6.89066 5.75867,-9.77066 0.49066,-0.48 0.97066,-1.76 1.93066,-0.96 1.12,0.8 -0.16,1.44 -0.48,1.92 -2.57066,3.21066 -4.16933,6.57066 -5.60933,10.25066 -0.80133,2.08 0.79867,2.24 1.91867,3.04 1.44,1.12934 1.60133,-0.32 2.24,-1.12 0.81066,-1.12 1.61066,-2.4 2.41066,-3.52 0.48,-0.64 1.12,-1.6 2.08,-0.64 0.8,0.64 -0.16,1.28 -0.48,1.92 -0.8,1.12 -1.6,2.4 -2.56,3.68 -0.64,0.96934 -0.48,1.60934 0.48,2.40934 1.6,1.28133 2.72,1.44133 3.52,-0.8 0.32,-0.64 0.8,-1.60934 1.92,-1.12 0.8,0.48 0.32,1.28 -0.16,1.92 -1.92,2.4 -0.96,3.83999 1.44934,5.11999 0.48,-0.48 0.8,-0.96 1.28,-1.6 0.32,-0.48 0.80133,-0.95999 1.28,-0.64 0.8,0.48 0.64133,1.28 0.32,1.76 -1.75867,1.92 -0.64,3.36 0.64,4.81067 1.28,1.44 2.08,2.88 3.04,4.48 0.8,1.12 1.93066,2.56 0.16,3.68 -1.59867,1.28 -2.55867,-0.16 -3.51867,-1.12 -5.45067,-5.28 -10.73067,-10.73067 -16.98133,-14.88933 -13.29867,-8.81067 -27.06934,-10.73067 -41.80934,-4.33067 -6.57066,2.72934 -11.38,7.36933 -14.42,13.94 -0.32,0.64 -1.6,1.6 -0.32,2.24 1.12,0.48 1.28,-1.12 1.76,-1.76 0.64,-0.8 1.12,-1.76 1.6,-2.56 0.48,-0.49067 0.96,-0.65067 1.6,-0.33067 0.49067,0.33067 0.16934,0.81067 0,1.29067 -0.64,1.12 -1.6,2.08 -1.44,3.68 2.24934,-3.2 4.96934,-5.93067 8.16934,-8.16933 0.64,-0.48134 1.61066,-1.60134 2.41066,-0.48134 0.8,1.12 -0.64,1.44 -1.29066,1.92 -2.56,2.09067 -5.28,3.85067 -6.72,7.05067 2.4,1.28 4,0.48 5.44133,-1.28 0.31867,-0.48 0.95867,-0.8 1.59867,-0.32 0.81066,0.8 0,1.12 -0.48,1.6 -0.16,0.32 -0.32,0.64 -0.63867,0.96 2.88933,1.76 3.68933,3.68 2.72933,6.08933 -1.12,2.72 -3.20933,2.56 -5.61066,2.24 -3.2,-0.48 -6.40934,-1.12 -9.60934,-1.43866 -7.05066,-0.48134 -13.45999,0.95866 -18.41999,6.55866 -2.73067,3.04 -4.49067,6.57067 -6.41067,10.09067 -1.27867,2.72 -2.72933,5.28933 -4.32933,8.01067 -0.64,0.95866 -1.6,1.59866 -2.88,1.11866 -1.12,-0.64 -1.6,-1.6 -1.28,-2.88 0.16,-0.48 0.16,-1.12 0.32,-2.08933 -2.41067,2.40933 -3.53067,4.96933 -4.48934,7.69067 -0.32133,0.79866 -0.64133,1.91866 -1.76133,1.43866 -0.96,-0.48 -0.31867,-1.27866 -0.16,-1.92 1.28,-3.67866 2.88,-7.04 5.93067,-9.60933 1.92,-1.76 2.4,-3.84 2.72,-6.24 -3.04,0.8 -5.61067,2.4 -8.01067,4.8 -8.80933,8.32933 -11.52933,24.18 -6.24933,35.22933 2.08933,4.49067 5.45066,7.69067 10.1,8.97067 7.84,2.24 15.69066,1.92 23.38,-1.28 1.93066,-0.64 3.68933,-1.92 4.64933,-4.16 -2.88,0.8 -5.60933,1.44 -8.16933,2.08 -0.64,0.16 -1.44,0.32 -1.76,-0.64 -0.32,-0.96 0.48,-1.28 1.28,-1.6 0.48,-0.16 1.12,-0.16 1.6,-0.32 0.48,-0.32 1.28,0 1.44,-0.97067 -4,0.65067 -8.17067,1.29067 -12.17067,0 -0.8,-0.16 -2.24933,-0.16 -1.92,-1.43866 0.32,-1.44134 1.44,-0.64134 2.24,-0.32134 6.09067,1.44 11.69067,0.32134 17.14,-2.08 0.64133,-0.16 1.60133,-0.32 1.28,-1.76 -2.88,1.12 -6.08933,1.44 -9.12933,1.12 -0.96,0 -2.4,0.32 -2.24,-1.28 0.16,-1.28 1.44,-0.8 2.4,-0.64 2.56,0.32 4.96933,0 7.20933,-1.28 -1.6,-0.48 -3.04933,-0.64 -4.64933,-0.96 -0.8,-0.16 -1.76,0 -1.6,-1.12 0,-1.28933 0.96,-0.96933 1.76,-0.96933 0.32,0 0.8,0.16933 0.96,-0.64 -0.8,-0.48 -1.44,-1.12 -2.4,-1.76 -0.8,-0.8 -1.44,-1.6 -0.64,-2.56 0.8,-1.12 1.76,-0.64 2.56,0 2.56933,1.76 5.28933,3.68 7.04933,6.41067 1.76,2.23866 2.73066,1.91866 4.65066,0.31866 2.24,-2.24933 4.8,-4.00933 8.00934,-4.64933 -0.64,1.28 -1.6,2.08 -2.56934,3.04933 -1.76,1.28134 -3.68,2.56 -5.44,4.16 -2.24,1.92 0.32,3.36 0.96,4.8 0.64,1.6 1.6,-0.16 2.24,-0.64 6.40934,-4.8 13.3,-8.16 21.14934,-9.92933 1.44,-0.32 3.04133,-0.16 4.48,-1.12 -1.76,-1.92 -3.35867,-4 -4.48,-6.24 -0.48,-0.8 -0.64,-1.92 0.48,-2.4 0.96,-0.49067 1.60133,0.16 2.08,0.96 5.45066,9.44 14.10133,12.64933 24.35066,12.16933 8.01067,-0.31866 15.7,-1.6 21.94934,-7.20933 3.36,-3.04 5.45066,-7.05067 7.85066,-10.73067 0.48,-0.8 0.8,-1.92 1.76,-1.28 0.96,0.48 0.48,1.44 0.16,2.24134 -0.96,2.39866 -1.92,4.80933 -3.04,7.20933 h 3.52 c 13.14,0.32 25.14934,4.16 36.53067,10.24933 1.44,0.64 3.03867,1.28 2.24,3.20134 -0.96,2.07866 -2.56133,1.11866 -4.01067,0.47866 -12.97066,-5.76 -26.27066,-9.92933 -40.85066,-8.96933 -1.43867,0 -2.56,0.48 -3.68,1.12 -12.98,7.84933 -26.26934,9.60933 -40.20934,2.72933 -1.12,-0.64 -2.08,-0.8 -3.52,-0.64 -10.42,2.4 -18.59066,8.96134 -26.76,15.53067 -0.16,0.16 -0.16,0.64 0.16,1.12 0.32,-0.32 0.8,-0.48 1.28,-0.8 2.25067,-2.08 4.64934,-3.84 7.37067,-5.29067 0.95867,-0.48 2.56933,-1.92 3.36933,-0.48 0.8,1.29067 -1.28,1.77067 -2.25066,2.41067 -3.04,1.6 -5.92,3.68 -8.48934,6.08 -0.8,0.8 -1.6,1.44 -0.64,2.72 1.77067,-1.44 3.36934,-3.04 5.28934,-4.48 5.13066,-4 11.05066,-6.57067 17.14133,-9.13067 1.11867,-0.48 2.23867,-0.64 2.87867,0.8 0.81066,1.6 -0.48,1.92 -1.6,2.4 -0.47867,0.17067 -0.96,0.49067 -1.43867,0.65067 -7.85067,3.2 -15.06133,7.04 -20.5,13.76933 -0.65067,0.8 -1.29067,1.44 -1.45067,2.88 2.40934,-2.39866 4.48934,-4.8 7.52934,-6.24933 0.64133,-0.16 1.44,-0.8 1.93066,0 0.64,0.96933 -0.33066,1.44933 -0.97066,1.76933 -3.03867,1.92134 -4.96,4.8 -7.84934,6.88 -0.8,0.64 -0.8,1.28 -0.8,1.6 1.61067,-1.6 3.52934,-3.04 5.44934,-4.48 1.76,-1.6 3.84,-3.04 5.93066,-4.32 1.28,-0.64 2.72,-1.60933 3.68,0.16 1.12,1.76 0,2.72 -1.6,3.52 -4.17066,2.24 -7.84933,5.12 -10.72933,8.97067 -0.96,1.12 -1.93067,2.24 -2.09067,4.16 3.04934,-2.72 5.92934,-4.96 9.3,-6.57067 0.64,-0.32 1.28,-0.64 1.76,0 0.48,0.81067 -0.32,1.13067 -0.8,1.61067 -0.8,0.48 -1.61066,0.96 -2.41066,1.6 -0.8,0.48 -1.44,1.12 -2.24,1.6 19.71066,-10.25067 41.01066,-11.05067 62.32133,-10.89067 21.45867,0.16 42.28933,4.96 61.98933,14.41067 0.48,-3.04 0.16,-5.12 -3.2,-6.08 -2.56,-0.64 -4.81066,-2.08 -7.21066,-3.21067 -0.64,-0.32 -1.91867,-0.48 -1.6,-1.28 0.32,-0.96 1.44,-0.48 2.08,-0.16 3.21066,1.28 6.09066,2.4 9.29066,3.69067 0,-1.29067 -0.16,-2.25067 0.16,-3.05067 1.28933,-6.56 -1.12,-10.40933 -7.84933,-11.36933 -0.64133,-0.16 -2.08133,-0.32 -1.44133,-1.6 0.48133,-0.96 1.44133,-0.48 2.24,-0.16 1.93066,0.64 3.85066,1.28 5.61066,2.08 1.44,0.64 1.76,0 1.92,-1.28 0.16,-1.28 0,-2.24 -1.12,-2.88 -1.44,-0.8 -2.56,-1.6 -3.84,-2.4 -0.8,-0.48 -1.44,-0.8 -0.96,-1.76 0.48,-1.28 1.28,-0.8 2.08,-0.32 0.96,0.48 1.92,1.12 3.04,1.76 0.48,0.32 1.12,1.28 1.76933,0.32 0.64,-0.8 0.16,-1.6 -0.64933,-2.24 -1.6,-0.96 -3.2,-1.93067 -4.64,-3.04933 -0.64,-0.48134 -1.6,-0.80134 -0.96,-1.76134 0.64,-1.12 1.44,-0.48 2.08,0 1.6,1.12 3.36,2.24134 5.12933,3.36 m -72.24933,27.39067 c -13.94,0.96 -27.56,3.68 -41.00933,7.20933 -0.96,0.32 -2.09067,0.64 -1.77067,2.08 0.48934,1.28 1.61067,0.64 2.40934,0.48 10.25066,-2.72 20.34,-4.64933 30.76,-6.08933 3.36,-0.48 6.72133,-0.96 10.09066,-1.44 1.12,-0.16 2.56,0 2.4,-1.44 -0.16,-1.44 -1.76,-0.64 -2.56,-0.8 z m 3.04,8.96933 c -6.73066,0.64 -13.46,1.44 -20.18,2.24 -1.13066,0.16 -2.41066,0 -2.24933,1.6 0.15867,1.6 1.60933,1.28 2.72933,1.12 0.8,-0.16 1.6,-0.32 2.4,-0.32 7.85067,-0.8 15.86,-1.6 23.70934,-2.4 0.96,0 2.08133,0.16 2.08133,-1.12 -0.16,-1.44 -1.44,-0.96 -2.24133,-1.12 z m 40.53067,2.24 v 0 c -4.32133,0.32 -8.49067,0.64 -12.81067,0.8 -0.97066,0.16 -2.25066,0.16 -1.92933,1.76 0.16,1.44 1.28,1.28 2.40933,1.12 1.44,0 2.72,-0.16 4.32,-0.32 3.84934,-0.32 7.68934,-0.64 11.54,-0.96 0.8,-0.16 1.44,-0.48 1.6,-1.44 0,-1.12 -0.96,-0.96 -1.6,-0.96 z m 2.39867,-6.72933 c -0.63867,-0.32 -0.8,-0.64 -0.96,-0.64 -7.36934,0.16 -14.56934,0.32 -21.93867,0.48 -0.81067,0 -1.93067,0 -1.77067,1.28 0.32,1.12 1.29067,0.8 2.08934,0.8 5.92,-0.32 11.69066,-0.48 17.62,-0.8 1.60133,-0.16 3.2,0 4.96,-1.12 m -44.04934,15.06 c 2.72,-0.32 5.92934,-0.8 9.28934,-1.29067 0.8,-0.16 1.76,-0.16 1.6,-1.28 -0.16,-1.12 -1.12,-0.96 -1.76,-0.8 -3.36,0.16 -6.72934,0.48 -10.08934,0.8 -0.96,0.16 -1.92,0.16 -1.6,1.45067 0.16,1.12 0.96,1.28 2.56,1.12 m -16.5,0.16 c -1.6,0 -3.04,0 -4.65066,0.16 -0.8,0 -1.43867,0.64 -1.27867,1.44 0,0.96 0.47867,1.6 1.43867,1.44 2.73066,-0.16 5.61066,-0.48 8.33066,-0.96 0.64934,-0.16 1.28934,-0.48 1.12934,-1.28 -0.16,-0.96 -0.80934,-1.28 -1.76934,-1.12 -1.12,0.16 -2.08,0.16 -3.2,0.32" style="fill:#231f20;fill-opacity:1;fill-rule:nonzero;stroke:none;stroke-width:1.33333"></path>
  </g>
</svg></svg></g></g></svg></g><g id="dark-icon"><svg xmlns="http://www.w3.org/2000/svg" version="1.1" xmlns:xlink="http://www.w3.org/1999/xlink" width="1000" height="1000"><g><g transform="matrix(4.321048922527007,0,0,4.321048922527007,-5.684341886080802e-14,130.78397784442654)"><svg xmlns="http://www.w3.org/2000/svg" version="1.1" xmlns:xlink="http://www.w3.org/1999/xlink" width="231.42529" height="170.89185"><svg version="1.1" id="svg1" width="231.42529" height="170.89185" viewBox="0 0 231.42529 170.89185" sodipodi:docname="stari vajat sredjen nnn.pdf" xmlns:inkscape="http://www.inkscape.org/namespaces/inkscape" xmlns:sodipodi="http://sodipodi.sourceforge.net/DTD/sodipodi-0.dtd" xmlns="http://www.w3.org/2000/svg" xmlns:svg="http://www.w3.org/2000/svg">
  <defs id="defs1"></defs>
  <sodipodi:namedview id="namedview1" pagecolor="#ffffff" bordercolor="#000000" borderopacity="0.25" inkscape:showpageshadow="2" inkscape:pageopacity="0.0" inkscape:pagecheckerboard="0" inkscape:deskcolor="#d1d1d1">
    <inkscape:page x="0" y="0" width="231.42529" height="170.89185" id="page2" margin="0" bleed="0"></inkscape:page>
  </sodipodi:namedview>
  <g id="layer-MC0" inkscape:groupmode="layer" inkscape:label="Layer 1" transform="translate(695.49854,-343.62767)">
    <path id="path4" d="m -644.54246,460.12715 c -8.01066,8.64933 -28.35999,10.40933 -38.13066,4.8 -9.60933,-5.44 -12.98,-14.25067 -12.82,-24.82 0.16,-13.77067 8.65067,-26.9 20.51067,-31.38933 3.04,-1.12134 4.96,-2.72134 6.72933,-5.44134 4.16,-6.88933 10.89067,-10.24933 18.9,-10.72933 2.72,-0.16 4.16,-0.96 5.13066,-3.84 4.64,-12.66 16.34,-20.34 30.42934,-20.66 5.77066,0 11.38133,0.48 16.82,1.92 0.97066,0.32 1.93066,1.12 2.41066,-0.64 3.36,-12.01066 12.00934,-18.74 23.06934,-22.74 16.02,-5.61066 30.75066,-3.52 43.41066,8.64934 0.8,0.8 1.76,0.8 2.72,0.96 12.18,1.6 23.38933,5.44 32.52,13.93066 3.53067,3.36 5.93067,7.36934 7.05067,12.16933 0.31866,1.12 0.63866,1.92134 1.92,2.4 10.89866,2.72 16.81866,10.09067 18.90933,20.66 2.56,13.13067 -0.32,24.82 -9.78,34.59067 -3.2,3.36 -7.2,5.92933 -11.85067,6.72933 -9.12933,1.44 -13.3,7.52 -15.38,15.53067 -2.24,8.48933 -2.08,17.14 -0.31866,25.78 0.31866,1.92933 2.39866,3.36933 0.96,5.60933 -1.12134,1.76 -3.04,2.4 -4.80134,3.36 -12.97999,8.01067 -27.23866,12.33067 -42.29999,14.73067 -20.97867,3.36933 -42.12934,3.84933 -63.26934,0.80933 -7.05066,-0.96933 -13.62,-3.04933 -20.19066,-5.60933 -6.56934,-2.56 -9.76934,-7.37067 -10.56934,-14.09067 -0.64,-6.24933 -0.32,-12.48933 -0.48,-18.74 -0.16,-4.64 -0.32,-9.12933 -1.6,-13.92933 m 138.88933,-5.13067 c 0.8,-1.11866 0,-1.43866 -0.32,-1.76 -2.08933,-2.24 -4.48933,-3.67866 -7.20933,-4.96 -0.8,-0.32 -1.6,-0.8 -1.12,-1.76 0.48,-0.95866 1.28,-0.48 1.92,-0.16 2.72,1.12 5.12,2.56 7.36933,4.32 0.64134,0.48 1.28,1.12 1.92,0 0.80134,-1.11866 0.48,-1.6 -0.64,-2.24 -5.28933,-2.71866 -10.56933,-5.44933 -16.17866,-7.68933 -7.85067,-3.36 -16.34133,-4.8 -24.67067,-5.76 -0.8,-0.16 -2.24,0.16 -2.08,-1.28 0.16,-1.13067 1.28,-0.64 1.92,-0.64 12.64934,1.12 24.67067,4.32 36.04,10.24 2.24933,1.12933 4.48933,2.09067 6.72933,3.20933 0.8,0.48 1.76,0.96 2.40134,-0.16 0.80933,-1.28 -0.64134,-1.44 -1.12134,-1.76 -2.24,-1.60933 -4.48,-2.88933 -6.88933,-4.00933 -0.64,-0.32 -1.6,-0.64 -1.12,-1.6 0.48,-0.8 1.12,-0.96 1.92933,-0.64 1.76,0.8 3.68,1.44 5.12,2.56 3.21067,2.72 6.09067,2.4 10.09067,1.12 13.3,-4.32 21.94933,-16.17067 21.46933,-29.94 -0.47866,-12.97067 -7.04933,-20.34 -20.02,-21.46 -4.64933,-0.32 -9.29866,-0.32 -13.94,-0.32 -1.6,0 -2.88933,-0.64 -3.20933,-2.24 -0.32,-1.93067 1.12933,-2.25067 2.40933,-2.73067 3.84,-1.27866 7.69067,-2.08 11.69067,-1.92 2.72933,0.16 2.88933,-0.8 1.92,-2.87999 -1.12,-2.56 -2.56,-4.64934 -4.48,-6.56934 -5.93067,-6.08 -13.3,-9.45066 -21.30933,-11.53066 -2.08133,-0.64 -4,-1.44 -6.25067,-1.12 0.32934,0.48 0.49067,0.96 0.64934,1.44 0.48,1.28 1.76133,2.89066 -0.15867,4.01066 -1.77067,0.96 -2.89067,-0.48 -3.69067,-1.93066 -2.08,-3.36 -4.80933,-6.08 -7.53066,-8.48 -12.00934,-10.72934 -25.78934,-10.88934 -39.88934,-4.96934 -8.16933,3.52934 -14.42,9.12934 -17.14,18.1 -0.8,2.72 1.28,2.56 2.56,3.36 1.76934,1.12 2.08934,-0.32 2.57067,-1.44 1.43867,-3.52 3.19867,-6.89066 5.75867,-9.77066 0.49066,-0.48 0.97066,-1.76 1.93066,-0.96 1.12,0.8 -0.16,1.44 -0.48,1.92 -2.57066,3.21066 -4.16933,6.57066 -5.60933,10.25066 -0.80133,2.08 0.79867,2.24 1.91867,3.04 1.44,1.12934 1.60133,-0.32 2.24,-1.12 0.81066,-1.12 1.61066,-2.4 2.41066,-3.52 0.48,-0.64 1.12,-1.6 2.08,-0.64 0.8,0.64 -0.16,1.28 -0.48,1.92 -0.8,1.12 -1.6,2.4 -2.56,3.68 -0.64,0.96934 -0.48,1.60934 0.48,2.40934 1.6,1.28133 2.72,1.44133 3.52,-0.8 0.32,-0.64 0.8,-1.60934 1.92,-1.12 0.8,0.48 0.32,1.28 -0.16,1.92 -1.92,2.4 -0.96,3.83999 1.44934,5.11999 0.48,-0.48 0.8,-0.96 1.28,-1.6 0.32,-0.48 0.80133,-0.95999 1.28,-0.64 0.8,0.48 0.64133,1.28 0.32,1.76 -1.75867,1.92 -0.64,3.36 0.64,4.81067 1.28,1.44 2.08,2.88 3.04,4.48 0.8,1.12 1.93066,2.56 0.16,3.68 -1.59867,1.28 -2.55867,-0.16 -3.51867,-1.12 -5.45067,-5.28 -10.73067,-10.73067 -16.98133,-14.88933 -13.29867,-8.81067 -27.06934,-10.73067 -41.80934,-4.33067 -6.57066,2.72934 -11.38,7.36933 -14.42,13.94 -0.32,0.64 -1.6,1.6 -0.32,2.24 1.12,0.48 1.28,-1.12 1.76,-1.76 0.64,-0.8 1.12,-1.76 1.6,-2.56 0.48,-0.49067 0.96,-0.65067 1.6,-0.33067 0.49067,0.33067 0.16934,0.81067 0,1.29067 -0.64,1.12 -1.6,2.08 -1.44,3.68 2.24934,-3.2 4.96934,-5.93067 8.16934,-8.16933 0.64,-0.48134 1.61066,-1.60134 2.41066,-0.48134 0.8,1.12 -0.64,1.44 -1.29066,1.92 -2.56,2.09067 -5.28,3.85067 -6.72,7.05067 2.4,1.28 4,0.48 5.44133,-1.28 0.31867,-0.48 0.95867,-0.8 1.59867,-0.32 0.81066,0.8 0,1.12 -0.48,1.6 -0.16,0.32 -0.32,0.64 -0.63867,0.96 2.88933,1.76 3.68933,3.68 2.72933,6.08933 -1.12,2.72 -3.20933,2.56 -5.61066,2.24 -3.2,-0.48 -6.40934,-1.12 -9.60934,-1.43866 -7.05066,-0.48134 -13.45999,0.95866 -18.41999,6.55866 -2.73067,3.04 -4.49067,6.57067 -6.41067,10.09067 -1.27867,2.72 -2.72933,5.28933 -4.32933,8.01067 -0.64,0.95866 -1.6,1.59866 -2.88,1.11866 -1.12,-0.64 -1.6,-1.6 -1.28,-2.88 0.16,-0.48 0.16,-1.12 0.32,-2.08933 -2.41067,2.40933 -3.53067,4.96933 -4.48934,7.69067 -0.32133,0.79866 -0.64133,1.91866 -1.76133,1.43866 -0.96,-0.48 -0.31867,-1.27866 -0.16,-1.92 1.28,-3.67866 2.88,-7.04 5.93067,-9.60933 1.92,-1.76 2.4,-3.84 2.72,-6.24 -3.04,0.8 -5.61067,2.4 -8.01067,4.8 -8.80933,8.32933 -11.52933,24.18 -6.24933,35.22933 2.08933,4.49067 5.45066,7.69067 10.1,8.97067 7.84,2.24 15.69066,1.92 23.38,-1.28 1.93066,-0.64 3.68933,-1.92 4.64933,-4.16 -2.88,0.8 -5.60933,1.44 -8.16933,2.08 -0.64,0.16 -1.44,0.32 -1.76,-0.64 -0.32,-0.96 0.48,-1.28 1.28,-1.6 0.48,-0.16 1.12,-0.16 1.6,-0.32 0.48,-0.32 1.28,0 1.44,-0.97067 -4,0.65067 -8.17067,1.29067 -12.17067,0 -0.8,-0.16 -2.24933,-0.16 -1.92,-1.43866 0.32,-1.44134 1.44,-0.64134 2.24,-0.32134 6.09067,1.44 11.69067,0.32134 17.14,-2.08 0.64133,-0.16 1.60133,-0.32 1.28,-1.76 -2.88,1.12 -6.08933,1.44 -9.12933,1.12 -0.96,0 -2.4,0.32 -2.24,-1.28 0.16,-1.28 1.44,-0.8 2.4,-0.64 2.56,0.32 4.96933,0 7.20933,-1.28 -1.6,-0.48 -3.04933,-0.64 -4.64933,-0.96 -0.8,-0.16 -1.76,0 -1.6,-1.12 0,-1.28933 0.96,-0.96933 1.76,-0.96933 0.32,0 0.8,0.16933 0.96,-0.64 -0.8,-0.48 -1.44,-1.12 -2.4,-1.76 -0.8,-0.8 -1.44,-1.6 -0.64,-2.56 0.8,-1.12 1.76,-0.64 2.56,0 2.56933,1.76 5.28933,3.68 7.04933,6.41067 1.76,2.23866 2.73066,1.91866 4.65066,0.31866 2.24,-2.24933 4.8,-4.00933 8.00934,-4.64933 -0.64,1.28 -1.6,2.08 -2.56934,3.04933 -1.76,1.28134 -3.68,2.56 -5.44,4.16 -2.24,1.92 0.32,3.36 0.96,4.8 0.64,1.6 1.6,-0.16 2.24,-0.64 6.40934,-4.8 13.3,-8.16 21.14934,-9.92933 1.44,-0.32 3.04133,-0.16 4.48,-1.12 -1.76,-1.92 -3.35867,-4 -4.48,-6.24 -0.48,-0.8 -0.64,-1.92 0.48,-2.4 0.96,-0.49067 1.60133,0.16 2.08,0.96 5.45066,9.44 14.10133,12.64933 24.35066,12.16933 8.01067,-0.31866 15.7,-1.6 21.94934,-7.20933 3.36,-3.04 5.45066,-7.05067 7.85066,-10.73067 0.48,-0.8 0.8,-1.92 1.76,-1.28 0.96,0.48 0.48,1.44 0.16,2.24134 -0.96,2.39866 -1.92,4.80933 -3.04,7.20933 h 3.52 c 13.14,0.32 25.14934,4.16 36.53067,10.24933 1.44,0.64 3.03867,1.28 2.24,3.20134 -0.96,2.07866 -2.56133,1.11866 -4.01067,0.47866 -12.97066,-5.76 -26.27066,-9.92933 -40.85066,-8.96933 -1.43867,0 -2.56,0.48 -3.68,1.12 -12.98,7.84933 -26.26934,9.60933 -40.20934,2.72933 -1.12,-0.64 -2.08,-0.8 -3.52,-0.64 -10.42,2.4 -18.59066,8.96134 -26.76,15.53067 -0.16,0.16 -0.16,0.64 0.16,1.12 0.32,-0.32 0.8,-0.48 1.28,-0.8 2.25067,-2.08 4.64934,-3.84 7.37067,-5.29067 0.95867,-0.48 2.56933,-1.92 3.36933,-0.48 0.8,1.29067 -1.28,1.77067 -2.25066,2.41067 -3.04,1.6 -5.92,3.68 -8.48934,6.08 -0.8,0.8 -1.6,1.44 -0.64,2.72 1.77067,-1.44 3.36934,-3.04 5.28934,-4.48 5.13066,-4 11.05066,-6.57067 17.14133,-9.13067 1.11867,-0.48 2.23867,-0.64 2.87867,0.8 0.81066,1.6 -0.48,1.92 -1.6,2.4 -0.47867,0.17067 -0.96,0.49067 -1.43867,0.65067 -7.85067,3.2 -15.06133,7.04 -20.5,13.76933 -0.65067,0.8 -1.29067,1.44 -1.45067,2.88 2.40934,-2.39866 4.48934,-4.8 7.52934,-6.24933 0.64133,-0.16 1.44,-0.8 1.93066,0 0.64,0.96933 -0.33066,1.44933 -0.97066,1.76933 -3.03867,1.92134 -4.96,4.8 -7.84934,6.88 -0.8,0.64 -0.8,1.28 -0.8,1.6 1.61067,-1.6 3.52934,-3.04 5.44934,-4.48 1.76,-1.6 3.84,-3.04 5.93066,-4.32 1.28,-0.64 2.72,-1.60933 3.68,0.16 1.12,1.76 0,2.72 -1.6,3.52 -4.17066,2.24 -7.84933,5.12 -10.72933,8.97067 -0.96,1.12 -1.93067,2.24 -2.09067,4.16 3.04934,-2.72 5.92934,-4.96 9.3,-6.57067 0.64,-0.32 1.28,-0.64 1.76,0 0.48,0.81067 -0.32,1.13067 -0.8,1.61067 -0.8,0.48 -1.61066,0.96 -2.41066,1.6 -0.8,0.48 -1.44,1.12 -2.24,1.6 19.71066,-10.25067 41.01066,-11.05067 62.32133,-10.89067 21.45867,0.16 42.28933,4.96 61.98933,14.41067 0.48,-3.04 0.16,-5.12 -3.2,-6.08 -2.56,-0.64 -4.81066,-2.08 -7.21066,-3.21067 -0.64,-0.32 -1.91867,-0.48 -1.6,-1.28 0.32,-0.96 1.44,-0.48 2.08,-0.16 3.21066,1.28 6.09066,2.4 9.29066,3.69067 0,-1.29067 -0.16,-2.25067 0.16,-3.05067 1.28933,-6.56 -1.12,-10.40933 -7.84933,-11.36933 -0.64133,-0.16 -2.08133,-0.32 -1.44133,-1.6 0.48133,-0.96 1.44133,-0.48 2.24,-0.16 1.93066,0.64 3.85066,1.28 5.61066,2.08 1.44,0.64 1.76,0 1.92,-1.28 0.16,-1.28 0,-2.24 -1.12,-2.88 -1.44,-0.8 -2.56,-1.6 -3.84,-2.4 -0.8,-0.48 -1.44,-0.8 -0.96,-1.76 0.48,-1.28 1.28,-0.8 2.08,-0.32 0.96,0.48 1.92,1.12 3.04,1.76 0.48,0.32 1.12,1.28 1.76933,0.32 0.64,-0.8 0.16,-1.6 -0.64933,-2.24 -1.6,-0.96 -3.2,-1.93067 -4.64,-3.04933 -0.64,-0.48134 -1.6,-0.80134 -0.96,-1.76134 0.64,-1.12 1.44,-0.48 2.08,0 1.6,1.12 3.36,2.24134 5.12933,3.36 m -72.24933,27.39067 c -13.94,0.96 -27.56,3.68 -41.00933,7.20933 -0.96,0.32 -2.09067,0.64 -1.77067,2.08 0.48934,1.28 1.61067,0.64 2.40934,0.48 10.25066,-2.72 20.34,-4.64933 30.76,-6.08933 3.36,-0.48 6.72133,-0.96 10.09066,-1.44 1.12,-0.16 2.56,0 2.4,-1.44 -0.16,-1.44 -1.76,-0.64 -2.56,-0.8 z m 3.04,8.96933 c -6.73066,0.64 -13.46,1.44 -20.18,2.24 -1.13066,0.16 -2.41066,0 -2.24933,1.6 0.15867,1.6 1.60933,1.28 2.72933,1.12 0.8,-0.16 1.6,-0.32 2.4,-0.32 7.85067,-0.8 15.86,-1.6 23.70934,-2.4 0.96,0 2.08133,0.16 2.08133,-1.12 -0.16,-1.44 -1.44,-0.96 -2.24133,-1.12 z m 40.53067,2.24 v 0 c -4.32133,0.32 -8.49067,0.64 -12.81067,0.8 -0.97066,0.16 -2.25066,0.16 -1.92933,1.76 0.16,1.44 1.28,1.28 2.40933,1.12 1.44,0 2.72,-0.16 4.32,-0.32 3.84934,-0.32 7.68934,-0.64 11.54,-0.96 0.8,-0.16 1.44,-0.48 1.6,-1.44 0,-1.12 -0.96,-0.96 -1.6,-0.96 z m 2.39867,-6.72933 c -0.63867,-0.32 -0.8,-0.64 -0.96,-0.64 -7.36934,0.16 -14.56934,0.32 -21.93867,0.48 -0.81067,0 -1.93067,0 -1.77067,1.28 0.32,1.12 1.29067,0.8 2.08934,0.8 5.92,-0.32 11.69066,-0.48 17.62,-0.8 1.60133,-0.16 3.2,0 4.96,-1.12 m -44.04934,15.06 c 2.72,-0.32 5.92934,-0.8 9.28934,-1.29067 0.8,-0.16 1.76,-0.16 1.6,-1.28 -0.16,-1.12 -1.12,-0.96 -1.76,-0.8 -3.36,0.16 -6.72934,0.48 -10.08934,0.8 -0.96,0.16 -1.92,0.16 -1.6,1.45067 0.16,1.12 0.96,1.28 2.56,1.12 m -16.5,0.16 c -1.6,0 -3.04,0 -4.65066,0.16 -0.8,0 -1.43867,0.64 -1.27867,1.44 0,0.96 0.47867,1.6 1.43867,1.44 2.73066,-0.16 5.61066,-0.48 8.33066,-0.96 0.64934,-0.16 1.28934,-0.48 1.12934,-1.28 -0.16,-0.96 -0.80934,-1.28 -1.76934,-1.12 -1.12,0.16 -2.08,0.16 -3.2,0.32" style="fill:#ffffff;fill-opacity:1;fill-rule:nonzero;stroke:none;stroke-width:1.33333" inkscape:export-filename="logo-dark.svg" inkscape:export-xdpi="96" inkscape:export-ydpi="96"></path>
  </g>
</svg></svg></g></g></svg></g></svg>